<svg xmlns="http://www.w3.org/2000/svg" viewBox="0 0 729.17 238.54"><defs><style>.cls-1{fill:none;stroke:#211f1f;stroke-width:2px;}.cls-1,.cls-4,.cls-5{stroke-miterlimit:10;}.cls-2,.cls-4,.cls-5{fill:#224280;}.cls-2,.cls-3{fill-rule:evenodd;}.cls-3{fill:#de2126;}.cls-4,.cls-5{stroke:#224280;}.cls-5{stroke-width:0.25px;}.cls-6{fill:#e0e2e5;}.cls-7{fill:#a82533;}.cls-8{fill:#55080e;}.cls-9{fill:#908e93;}.cls-10{fill:#fff;}.cls-11{fill:#c81820;}.cls-12{fill:#241f5d;}</style></defs><g id="Layer_2" data-name="Layer 2"><g id="Layer_2-2" data-name="Layer 2"><circle class="cls-1" cx="119.27" cy="119.27" r="118.27"/><path class="cls-2" d="M129,158.47a8.73,8.73,0,0,0-.65-1,6.62,6.62,0,0,1,1.1.9,2.36,2.36,0,0,0-.45.08m1.71.17a13.45,13.45,0,0,0-1.64-2.7,10.12,10.12,0,0,1,3,3.65l-.28.25s0,0,0,0a1.87,1.87,0,0,0-.76-1.07Zm5.54,1.91-.12,0a1.7,1.7,0,0,0-.52-1.16,2.63,2.63,0,0,0-3.44.12,8.35,8.35,0,0,0-2.16-4.36,8.09,8.09,0,0,1,3.64,3.59c-.22-1.82-1.68-4.13-2.84-5.55,1.47.86,2.58,2.16,4.18,5.19-.6-2.21-1.58-5.38-3.93-7.45,5.69,3.82,4,7.24,5.75,9.3A2.39,2.39,0,0,0,136.25,160.55Zm-20.6-5.44a3.33,3.33,0,0,1-1.57,1.12,3.26,3.26,0,0,0,1-1.69,2.88,2.88,0,0,1-1.59,1,3.53,3.53,0,0,0,1-1.67,2.85,2.85,0,0,1-1.53,1c.48-.39,1.23-1.47,1.13-1.63a3.55,3.55,0,0,1-1.54.91,3.07,3.07,0,0,0,1.11-1.62,2.65,2.65,0,0,1-1.46.9,3.47,3.47,0,0,0,1.14-1.59,2.7,2.7,0,0,1-1.3.94,4.32,4.32,0,0,0,1-1.81,7.34,7.34,0,0,1-1.2,1.49,6.88,6.88,0,0,0,2.37,4.3A4.28,4.28,0,0,0,115.65,155.11Zm-2.4,2.2a4.26,4.26,0,0,1-1.67,1,3.56,3.56,0,0,0,1.06-1.66,3.14,3.14,0,0,1-1.56.93,3.21,3.21,0,0,0,1.06-1.59,2.67,2.67,0,0,1-1.44.9,3.32,3.32,0,0,0,1.12-1.6,2.74,2.74,0,0,1-1.37.93,3.47,3.47,0,0,0,1-1.59,3.41,3.41,0,0,1-1.22.91,3.33,3.33,0,0,0,.89-1.79,9.86,9.86,0,0,1-1.12,1.43,7,7,0,0,0,1.89,3.72A4.23,4.23,0,0,0,113.25,157.31ZM107,144.66v0c-.06.7-.09,1.39-.1,2.09q0,.54,0,1.08c0,.64,0,1.29.09,1.94a4.41,4.41,0,0,0,1-1.62,1.84,1.84,0,0,1-1,.49,3.36,3.36,0,0,0,1-1.29,1.57,1.57,0,0,1-1,.37,2.69,2.69,0,0,0,.92-.88,1.73,1.73,0,0,1-1,.19,3.09,3.09,0,0,0,.86-.8,1.24,1.24,0,0,1-.83,0,1.72,1.72,0,0,0,.6-.5,1.13,1.13,0,0,1-.66,0,.53.53,0,0,0,.29-.53C107.17,145,107.13,144.93,107,144.66Zm2.36-7.29a9.88,9.88,0,0,1-.18-1.7,37.05,37.05,0,0,0-1.42,4.44A6.54,6.54,0,0,0,109.37,137.37Zm2,5.07A5.45,5.45,0,0,1,109,145a7.73,7.73,0,0,0,1.78-3.71,6.47,6.47,0,0,1-2.47,2.62,8.84,8.84,0,0,0,2-3.75,6.93,6.93,0,0,1-2.4,2.26,9.11,9.11,0,0,0,2-3.48,9.66,9.66,0,0,1-2.38,2.93,6.7,6.7,0,0,0,1.76,4A6.33,6.33,0,0,0,111.33,142.44Zm10.25,5a7.73,7.73,0,0,0,2.18,2.88,6.43,6.43,0,0,1-2.25,3.71,5.47,5.47,0,0,1-1.84-2.58,4.81,4.81,0,0,0,2.08,1.95,5.15,5.15,0,0,1-1.5-2.7,4.75,4.75,0,0,0,2.2,2,5.73,5.73,0,0,1-1.65-2.91,4.6,4.6,0,0,0,2.23,1.92,6,6,0,0,1-1.82-2.89,5.59,5.59,0,0,0,2.18,1.86A5.53,5.53,0,0,1,121.58,147.42Zm3.39,2.36a3,3,0,0,0,1.74,1.33,4,4,0,0,1-1.13-2,2.5,2.5,0,0,0,1.67,1.07,3.39,3.39,0,0,1-1.23-1.85,3.47,3.47,0,0,0,1.6,1.06,4.36,4.36,0,0,1-1.24-1.9,2.62,2.62,0,0,0,1.48,1,3.77,3.77,0,0,1-1.18-1.82,5.26,5.26,0,0,0,1.35,1,5.82,5.82,0,0,1-1.12-1.91,7,7,0,0,0,1.47,1.47,7.86,7.86,0,0,1-1.88,4.46A4.56,4.56,0,0,1,125,149.78Zm-6.18,2.67a5.89,5.89,0,0,1-1.33,2.62,5.14,5.14,0,0,0,1.82-1.76,11.24,11.24,0,0,1-1.38,3,5.43,5.43,0,0,0,1.93-2.28,7.82,7.82,0,0,1-1.29,3.19,5.12,5.12,0,0,0,1.95-2.56,6.88,6.88,0,0,1-1.7,3.27,6.79,6.79,0,0,1-1.7-3.27A6.3,6.3,0,0,0,118.79,152.45Zm3.13,2.66a3.36,3.36,0,0,0,1.58,1.12,3.19,3.19,0,0,1-1-1.69,2.85,2.85,0,0,0,1.59,1,3.45,3.45,0,0,1-1-1.67,2.81,2.81,0,0,0,1.53,1c-.48-.39-1.23-1.47-1.14-1.63a3.64,3.64,0,0,0,1.55.91,3,3,0,0,1-1.11-1.62,2.66,2.66,0,0,0,1.45.9,3.44,3.44,0,0,1-1.13-1.59,2.7,2.7,0,0,0,1.3.94,4.32,4.32,0,0,1-1-1.81,7.34,7.34,0,0,0,1.2,1.49,6.93,6.93,0,0,1-2.37,4.3A4.22,4.22,0,0,1,121.92,155.11Zm2.41,2.2a4.26,4.26,0,0,0,1.67,1,3.59,3.59,0,0,1-1.07-1.66,3.21,3.21,0,0,0,1.57.93,3.08,3.08,0,0,1-1.06-1.59,2.63,2.63,0,0,0,1.44.9,3.19,3.19,0,0,1-1.12-1.6,2.74,2.74,0,0,0,1.37.93,3.49,3.49,0,0,1-1-1.59,3.46,3.46,0,0,0,1.23.91,3.33,3.33,0,0,1-.89-1.79,9.82,9.82,0,0,0,1.11,1.43,7.12,7.12,0,0,1-1.88,3.72A4.14,4.14,0,0,1,124.33,157.31Zm6.08-6.27a7.24,7.24,0,0,1-1.74,3.75,6.22,6.22,0,0,1-1.74-2.08,4,4,0,0,0,1.85,1.44,4.51,4.51,0,0,1-1.26-2.06,2.84,2.84,0,0,0,1.82,1.35,3.62,3.62,0,0,1-1.24-2.18,3.13,3.13,0,0,0,1.65,1.16,5.3,5.3,0,0,1-1.17-2.11,2.63,2.63,0,0,0,1.46,1.1,3.78,3.78,0,0,1-1-2.13A7.5,7.5,0,0,0,130.41,151Zm.15-6.38v0c.05.7.09,1.39.1,2.09,0,.36,0,.72,0,1.08,0,.64,0,1.29-.09,1.94a4.53,4.53,0,0,1-1-1.62,1.84,1.84,0,0,0,.94.49,3.43,3.43,0,0,1-1-1.29,1.52,1.52,0,0,0,1,.37,2.61,2.61,0,0,1-.92-.88c.27.22.64.16,1,.19a3,3,0,0,1-.86-.8,1.24,1.24,0,0,0,.83,0,1.72,1.72,0,0,1-.6-.5,1.1,1.1,0,0,0,.65,0,.54.54,0,0,1-.29-.53A4.75,4.75,0,0,0,130.56,144.66Zm-2.36-7.29a7.68,7.68,0,0,0,.18-1.7,35.33,35.33,0,0,1,1.42,4.44A6.65,6.65,0,0,1,128.2,137.37Zm-1.95,5.07a5.49,5.49,0,0,0,2.37,2.53,7.79,7.79,0,0,1-1.77-3.71,6.41,6.41,0,0,0,2.47,2.62,8.73,8.73,0,0,1-2-3.75,6.93,6.93,0,0,0,2.4,2.26,9.11,9.11,0,0,1-2-3.48,9.62,9.62,0,0,0,2.37,2.93,6.64,6.64,0,0,1-1.75,4A6.22,6.22,0,0,1,126.25,142.44Zm-4.17,3.14c.22.65,1,2.24,2.46,2.48a4.11,4.11,0,0,1-1.57-3.14,3.58,3.58,0,0,0,2.08,2.32,3.86,3.86,0,0,1-1.22-3,5,5,0,0,0,1.47,2,6.15,6.15,0,0,1-.7-2.59,4,4,0,0,0,1.12,1.13,4.3,4.3,0,0,1-.26-1.9c.09.19.31,1,.4,1.19a7.27,7.27,0,0,1-1.78,5A4.91,4.91,0,0,1,122.08,145.58Zm-1.58.91a7.78,7.78,0,0,1-2.09,2.83,4.89,4.89,0,0,0,1.78-1.11,4.9,4.9,0,0,1-1.62,2,2.07,2.07,0,0,0,1.05-.57,5,5,0,0,1-.83,1.23,7.64,7.64,0,0,1-1.72-4.36l.68.6a2.25,2.25,0,0,1-.27.84,2.68,2.68,0,0,0,.83-.44,3.89,3.89,0,0,1-.36,1.06A9.84,9.84,0,0,0,120.5,146.49Zm-5-.91c-.22.65-1,2.24-2.46,2.48a4.15,4.15,0,0,0,1.57-3.14,3.58,3.58,0,0,1-2.08,2.32,3.9,3.9,0,0,0,1.22-3,5,5,0,0,1-1.47,2,6.15,6.15,0,0,0,.7-2.59,3.94,3.94,0,0,1-1.13,1.13,4.21,4.21,0,0,0,.27-1.9c-.09.19-.31,1-.41,1.19a7.31,7.31,0,0,0,1.79,5A4.91,4.91,0,0,0,115.5,145.58Zm.5,1.84a7.74,7.74,0,0,1-2.19,2.88,6.53,6.53,0,0,0,2.25,3.71,5.54,5.54,0,0,0,1.85-2.58,4.81,4.81,0,0,1-2.08,1.95,5.15,5.15,0,0,0,1.5-2.7,4.84,4.84,0,0,1-2.21,2,5.69,5.69,0,0,0,1.66-2.91,4.59,4.59,0,0,1-2.24,1.92,6,6,0,0,0,1.82-2.89,5.55,5.55,0,0,1-2.17,1.86A5.53,5.53,0,0,0,116,147.42Zm13.88-27.1c-.35-.28-2.16-.52-4.37.64-1.07.3-1.71-.47-.52-1.26a.88.88,0,0,0,.65.31C126.93,120.14,129.66,119.3,129.88,120.32Zm-2.14-3.87a7.31,7.31,0,0,1-2.83-1.68,11.47,11.47,0,0,1-3.69.06,4,4,0,0,0,2.31.54,1.75,1.75,0,0,1-1.31.56,1.47,1.47,0,0,0,1.4.12c.29,1.4,1.82,1,2.91.55a2.31,2.31,0,0,1-1.64,0,.89.89,0,0,1-.17-1.23l.42.29c-.12.5.3,1,.86.42A2.77,2.77,0,0,0,127.74,116.45Zm1.29-.53a1.43,1.43,0,0,1-.52.45,8,8,0,0,1,1,.12.89.89,0,0,0-.27-.31,12.93,12.93,0,0,1,1.82.47A6.3,6.3,0,0,0,129,115.92Zm-1.14.07a1.12,1.12,0,0,0,.87-.48c1.42.27,3.74,1,3.89,1.7.21,1,.34,2.57-2.45,4.93.81-1.81-.18-2.72-1.06-2.83-.64-.09-1.86.13-3,0-.76-.1-.66-.81-.13-1.26s1.73-.55,2-1.73c-.52.87-1.68.9-2.44,1.32-.4.23-1,.87-.77,1.34a2.92,2.92,0,0,0-1.17,1.17,1.47,1.47,0,0,0-.14.72c-2.36.48-6.4,3.45-7.63,7.29a14,14,0,0,1,8.75-6.54A15,15,0,0,0,115,133.67c1.5-5.21,5.39-9.29,8.71-10.32-3.05,1.53-6.69,6.17-7.29,10a14.71,14.71,0,0,1,7.47-8.53c-2.12,1.17-5.4,4.79-6.14,8.11a13.39,13.39,0,0,1,6.52-6.86c1.39,3.21,4.62,5.8,5.3,10.42a23.06,23.06,0,0,0-1.44-2.36A20.34,20.34,0,0,1,126,140.6a13.37,13.37,0,0,0,0-5c-.21,3.51-1.54,7.41-3.61,9a9.23,9.23,0,0,0,1.14-5.67c-.87,4.46-3.13,6.46-4.6,7.36a13.84,13.84,0,0,1-5.2-7.13,11.78,11.78,0,0,0,1.87,5.75c-1.27-.86-3.76-5-4-9.44a15.15,15.15,0,0,0,.3,6.2c-1.16-1.57-1.87-5.22-2.15-7.75a9.29,9.29,0,0,0-1.61,2,20.42,20.42,0,0,1,3.22-8.63,16.76,16.76,0,0,0-3.12,4.28,25.53,25.53,0,0,1,4.67-10.37,9.87,9.87,0,0,0-3.27,2.72,19.49,19.49,0,0,1,5.11-7.45,8.5,8.5,0,0,0-2.8,1.74A8.56,8.56,0,0,1,118.1,114a5.14,5.14,0,0,0-1.93-.33c3.06-1.26,6.7-.25,8.51.43C125.4,114.37,129.07,114.67,127.89,116ZM107.17,151a7.24,7.24,0,0,0,1.74,3.75,6.21,6.21,0,0,0,1.73-2.08,4,4,0,0,1-1.84,1.44,4.51,4.51,0,0,0,1.26-2.06,2.84,2.84,0,0,1-1.82,1.35,3.68,3.68,0,0,0,1.24-2.18,3.17,3.17,0,0,1-1.66,1.16,5.2,5.2,0,0,0,1.18-2.11,2.65,2.65,0,0,1-1.47,1.1,3.86,3.86,0,0,0,1-2.13A7.77,7.77,0,0,1,107.17,151Zm8.62,9.61a5.16,5.16,0,0,0,1.81-2.5,5.44,5.44,0,0,1-2.46,1.84,5.28,5.28,0,0,0,2-2.42,4.6,4.6,0,0,1-2.33,1.7,4.85,4.85,0,0,0,1.9-2.53,5,5,0,0,1-2.12,1.82,5.76,5.76,0,0,0,1.75-2.72A5.77,5.77,0,0,1,114.1,158a7.48,7.48,0,0,0,1.29,2.69Zm2.29-2a5,5,0,0,1-2.09,2h.59A5.29,5.29,0,0,0,118.08,158.65Zm-5.25,2.11a3.18,3.18,0,0,0,.79-1,1.91,1.91,0,0,1-1.1.56,2.2,2.2,0,0,0,.76-1.33,5.62,5.62,0,0,1-1.11,1.09,7.36,7.36,0,0,0,.22.71Zm.9,0a3.62,3.62,0,0,0,.2-.33,2.72,2.72,0,0,1-.66.35Zm8-.09a5.23,5.23,0,0,1-1.8-2.48,5.52,5.52,0,0,0,2.47,1.84,5.31,5.31,0,0,1-2-2.42,4.62,4.62,0,0,0,2.34,1.7,4.79,4.79,0,0,1-1.9-2.53,4.94,4.94,0,0,0,2.12,1.82,5.69,5.69,0,0,1-1.75-2.72,5.7,5.7,0,0,0,2.22,2.13,7.46,7.46,0,0,1-1.28,2.67Zm-2.27-2a5,5,0,0,0,2,2H121A5.29,5.29,0,0,1,119.5,158.65Zm-.49,2a3.72,3.72,0,0,0,.26-.46,2.53,2.53,0,0,1,0,.46Zm-.22-1.12a3.86,3.86,0,0,1-.37,1.12h-.37A6.39,6.39,0,0,0,118.79,159.49Zm5.92,1.23a3.07,3.07,0,0,1-.76-1,2,2,0,0,0,1.11.56,2.15,2.15,0,0,1-.76-1.33,5.36,5.36,0,0,0,1.11,1.09,6.56,6.56,0,0,1-.21.67Zm-.88,0c-.06-.1-.13-.2-.18-.3a2.24,2.24,0,0,0,.58.31Zm-11.22-10.91a3,3,0,0,1-1.74,1.33,4,4,0,0,0,1.13-2,2.5,2.5,0,0,1-1.68,1.07,3.4,3.4,0,0,0,1.24-1.85,3.52,3.52,0,0,1-1.6,1.06,4.36,4.36,0,0,0,1.24-1.9,2.62,2.62,0,0,1-1.48,1,3.85,3.85,0,0,0,1.18-1.82,5.15,5.15,0,0,1-1.36,1,5.88,5.88,0,0,0,1.13-1.91,7,7,0,0,1-1.47,1.47,7.79,7.79,0,0,0,1.88,4.46A4.56,4.56,0,0,0,112.61,149.78ZM54.77,76.15C43.86,70.18,31.16,65,23.12,62.86,32.35,64.11,47.41,69.36,54.77,76.15Zm51.54,57.24C87.94,116.28,87.9,85.91,51.15,69.55,88.73,83.34,89.86,114.89,106.31,133.39Zm-2.73,15.43c-1.72,1.24-4.12,1.12-6.34-.35,2.74-3.59,4.9-10.27,5.34-14.82a35,35,0,0,1-2.9,14.17c3.48-4.48,4-10.75,4.09-13,.57,3.13-.22,8.66-2.21,13.12a22.42,22.42,0,0,0,3.5-12.06c.28,2.51.18,8.34-1.72,11.48,2.29-3,2.7-7,3.06-10.29C106.62,140,106.15,147,103.58,148.82Zm-6.86-5.14c-2,2.44-5.34,2.65-7.9.26,3.31-3.08,7.25-9.72,8.92-15.83-.56,5.61-3.86,12.37-6.22,15.54,4.77-4.79,6.77-12,7.26-14.18,0,3.83-2.9,10.61-5.62,14.67a27.94,27.94,0,0,0,6.65-13.41c0,4-2.39,10.36-4.79,13.14,2.77-2.62,4.83-7.26,5.91-11.75A25.88,25.88,0,0,1,96.72,143.68Zm-6.88-5c-2.58,2.15-6.57,1-7.75-.28,4.39-2.79,9.53-9.17,12.27-14.85-1.16,4.74-6.62,11.65-9.68,14.47,5.81-4.11,9.71-11.36,10.45-13.39-.82,3.75-5.31,10.42-8.93,14.07a30.94,30.94,0,0,0,9.53-13.31c-.61,3.74-4.61,10.84-7.62,13.27,3.33-2.23,6.72-7.29,8.24-12.36A24.4,24.4,0,0,1,89.84,138.72Zm-7-4.55c-2.91,1.67-6.59-.15-7.53-1.64,4.81-2,12.5-8.63,16-13.84-2,4.47-9.9,11.69-13.4,13.93,6.44-3,12.93-11,14-12.84-1.46,3.56-8.31,10.88-12.51,13.85,5.33-2.79,11.26-9.55,13-12.9-1.25,3.58-7.37,11.13-11.08,13.15A28,28,0,0,0,93,121.78C91.51,126.37,86.81,131.91,82.87,134.17Zm-5.41-5.27c-3.35,1.39-7-1.09-7.78-2.82,5.42-1.48,14.37-7.26,18.8-12.37-2.71,4.53-12.08,10.93-16.13,12.86,7.31-2.38,15.22-10.14,16.64-12-1.86,3.09-10.27,10.67-15.17,13.28,6.09-2.26,13.57-9.09,15.71-12.34-1.49,2.94-9.44,11.2-13.69,12.87a31.1,31.1,0,0,0,14.23-11.87C87.82,121.4,82,127,77.46,128.9Zm-4-6.29c-3.47,1.06-6.83-1.77-7.46-3.56,5.54-.94,14.81-6.34,19.72-11-3.14,4.24-13,9.87-17.17,11.4,7.51-1.66,16.31-8.66,17.91-10.38-2.16,2.9-11.59,9.86-16.73,12,6.29-1.66,14.72-7.84,17.17-10.87-1.77,2.79-10.6,10.51-15,11.75A31.54,31.54,0,0,0,87.3,111.27C84.58,115.93,78.14,121.17,73.44,122.61Zm28.65,28.6c-1.74,5.65-4.08,9.37-9,12.09l-1,.23c-1.61-6.55,2.35-11.13,4-13.32a29.37,29.37,0,0,0-3.83,9.84A43.81,43.81,0,0,1,97,150.89c-1.24,2.25-3.72,7.83-4.17,11.22a58.32,58.32,0,0,1,5.47-11,31.36,31.36,0,0,0-3.46,9.79,40.62,40.62,0,0,1,4.83-9.54,21.64,21.64,0,0,0-2.75,7.37,43.21,43.21,0,0,1,3.86-7.39,26.85,26.85,0,0,0-2.24,6.12C99.21,156.21,101,153.28,102.09,151.21Zm-7.84-3.9c-3.58,7.16-8.85,14.75-16.52,18.69-.52-8,4.81-13.85,9.68-19.92-2.82,4.26-7.38,12-8.39,15.08,2.13-3.47,6.75-10.8,9.32-14.26-1.16,1.83-8.18,14.44-8.68,16,2.25-3.66,7.27-12,10.16-15.71A67.78,67.78,0,0,0,82.51,161c2.13-3.47,6.26-10.3,8.87-13.56a51.44,51.44,0,0,0-5.75,11c1.7-2.74,4.4-7.31,7.05-10.94a45.68,45.68,0,0,0-3.54,7C90.23,152.93,92.46,149.78,94.25,147.31Zm-8.88-3.52c-5.9,7.65-11.83,13.09-20.19,16.72,1.21-7.4,9.39-15.11,15.81-21-4,4.31-10.23,11.29-12.36,14.77,3.16-3.57,9.53-10.36,13-13.77-1.7,1.87-11.86,14-12.91,15.74,3.34-3.77,10.52-11.49,14.37-15.07-4.24,4.42-9.46,10.48-11.77,14.25,3.16-3.57,9.88-10.95,13.32-14.1a92.89,92.89,0,0,0-9.89,12.3c2.52-2.81,7.6-8.45,11.24-12a108.67,108.67,0,0,0-7,8.45C80.56,148.6,82.91,146.24,85.37,143.79ZM78.15,139c-7.4,7.35-14.52,12.34-24,15,2.34-7.74,12.2-14.83,19.9-20.19-4.94,4-12.56,10.63-15.33,14.06,3.89-3.38,11.67-9.74,15.91-12.9-2.09,1.77-14.69,13.33-16.07,15,4.12-3.57,12.9-10.81,17.53-14.1-5.17,4.13-11.61,9.87-14.63,13.59,3.9-3.37,12.14-10.33,16.27-13.21a100.64,100.64,0,0,0-12.34,11.77c3.1-2.65,9.34-8,13.75-11.31a116.62,116.62,0,0,0-8.64,8.06C72.32,143.51,75.17,141.31,78.15,139Zm-7.08-5.79c-8.35,6.26-16.09,10.22-25.83,11.6,3.38-7.36,14.12-13,22.49-17.28-5.45,3.33-13.9,8.81-17.12,11.82,4.32-2.8,12.9-8,17.53-10.59-2.31,1.47-16.38,11.19-18,12.68,4.56-3,14.26-8.93,19.3-11.56-5.69,3.39-12.87,8.19-16.36,11.46,4.32-2.81,13.44-8.57,17.93-10.85a99.63,99.63,0,0,0-13.84,10c3.43-2.2,10.34-6.62,15.16-9.31A116.57,116.57,0,0,0,62.71,138C64.68,136.88,67.8,135.09,71.07,133.25ZM68.9,115.64A6.09,6.09,0,0,1,62,111.3c5.61-.4,15.12-4.81,20.46-9C79,106.24,68.66,110.9,64.31,112c7.64-.92,17.08-7,18.83-8.59-2.42,2.67-12.49,8.69-17.8,10.31,6.41-1,15.6-6.5,18.32-9.28-2,2.6-11.75,9.55-16.25,10.36,6.09-1.06,13.19-5.51,16.68-9.45C80.94,109.73,73.71,114.66,68.9,115.64Zm-2.17-7.7a6.91,6.91,0,0,1-7-5.27c7,.45,13.47-1.51,19.78-4.93-4,2.55-8.45,4.79-18.17,6.23,8.77.28,17.49-4.12,18.84-5.14-1.57,1.7-11.81,6.3-17,6.81,6.9,0,15.85-4.4,17.59-5.69-1.57,1.25-9,5.76-15.07,6.88a32.47,32.47,0,0,0,15.59-6.17C77.16,104.69,70.71,107.48,66.73,107.94Zm-.86,18.35c-9.68,4.41-18.26,6.65-28.25,5.88,5-6.58,16.91-9.86,26.18-12.26-6.16,2.12-15.77,5.72-19.64,8,4.92-1.85,14.6-5.18,19.77-6.69-2.62,1-18.76,7.54-20.67,8.67,5.19-2,16.16-5.76,21.75-7.27-6.41,2.12-14.61,5.33-18.8,7.82,4.91-1.85,15.26-5.58,20.23-6.87a102.3,102.3,0,0,0-16,6.88c3.9-1.44,11.74-4.32,17.14-5.94-4.21,1.51-8.62,3.42-11.11,4.64C58.71,128.5,62.22,127.41,65.87,126.29Zm-32.65-6.52c2.9-3.62,17.24-7.57,26.32-8.67-6.8,1.49-16.46,4.09-21.27,6.36,5.08-1.38,16-4,21.15-4.81-7.28,1.63-17.12,4.42-22.14,6.8,5.36-1.46,17.15-4.36,22.86-5.35-6.58,1.52-14.66,3.71-19.06,5.8,5.06-1.3,15-3.7,20.07-4.52A117.19,117.19,0,0,0,45.42,120c4-.79,11.15-2.42,16.71-3.53-4.12,1.1-8.67,2.47-11.54,3.39,2.93-.63,8-1.49,12.23-2.47C49,122.22,38.06,121,33.22,119.77ZM58.89,92C64.57,93.29,69,94.18,76.7,93.51c-3.26.8-11.74,1-16.18-.11,4.71,2.13,13.27,1.83,16.85,1.11-3,1.44-13.56,1.83-16.19,1.56a37.43,37.43,0,0,0,16.68-.67c-3.92,1.87-12.11,3-15,2.91,2.77.71,12-.3,15.5-2.15-2.49,1.84-11.19,4.53-16,2.92C60.27,98.4,58.45,95.37,58.89,92ZM57.22,77.89c2.38,2.55,7.84,6,10.94,7.68a41,41,0,0,1-9.09-3.43c2.22,2.56,6.94,4.28,11.76,5.55-3.19.09-8.91-1.31-11-2,3.45,2.53,11,3.44,13.31,3.83-2.5.41-8.87-.08-10.54-.27.5.46,8.37,2.17,12.48,2.43C66.22,92.27,55.92,91.8,57.22,77.89Zm1.33,31.17c-14.12.53-23.61.62-30.9-8.32,5.86-.92,20.28.43,29.43,2.28-8.26-1-20.25-1.81-25.46-1.6,6.27.45,19.7,2.28,25.61,3.29-7.67-.8-18.5-1.44-23.22-1.16,5.8.35,19.1,2.09,24.66,3-7.17-.55-17.24-1.13-21.5-.82,5.66.37,16.12,1.47,21.73,2.26A128.25,128.25,0,0,0,42,107.85C45.88,108,53.24,108.53,58.55,109.06Zm-1-8.64C39.22,97.16,28.15,91,25.93,83c9.19.3,26,7.85,31,10-8.6-3.17-21.85-7.34-27.62-8.44,6.59,2.06,20.52,7.44,26.59,10-8-2.81-19.4-6.22-24.48-7.08,6.14,1.84,19.17,6.76,24.84,9.15-7.52-2.35-17.19-4.91-21.66-5.51,5.59,1.51,17.18,5.54,23,7.79C51,96.88,42.85,94.74,39,94.22,43.41,95.41,52,98.34,57.56,100.42ZM57,90.9c-10.47-4.73-29.3-16.74-31.81-22.78,17.62,5.47,24.1,8.63,31.62,13.73-5.67-2.49-16.52-8.64-26.75-11.33A161.25,161.25,0,0,1,56,84.07c-7.49-4-19.57-9.72-24.84-11.43,6.44,3,20.72,11,24.7,13.56-4.7-2.34-16.14-8.38-22.34-10.9,7.68,4.26,22.55,13,22.6,13.26C52.84,86.78,42.63,81.43,38,79,42.19,82.09,53.67,88.87,57,90.9ZM183.53,76.15c10.91-6,23.61-11.11,31.65-13.29C206,64.11,190.89,69.36,183.53,76.15ZM132,133.39c18.38-17.11,18.41-47.48,55.16-63.84C149.57,83.34,148.44,114.89,132,133.39Zm1.73,15.43c1.73,1.24,4.12,1.12,6.35-.35-2.74-3.59-4.91-10.27-5.34-14.82a35,35,0,0,0,2.9,14.17c-3.48-4.48-4-10.75-4.09-13-.58,3.13.22,8.66,2.21,13.12a22.54,22.54,0,0,1-3.51-12.06c-.27,2.51-.17,8.34,1.72,11.48-2.28-3-2.7-7-3.05-10.29C130.69,140,131.16,147,133.72,148.82Zm6.86-5.14c2,2.44,5.35,2.65,7.91.26-3.31-3.08-7.25-9.72-8.92-15.83.56,5.61,3.86,12.37,6.21,15.54-4.76-4.79-6.76-12-7.25-14.18-.05,3.83,2.89,10.61,5.61,14.67a28,28,0,0,1-6.64-13.41c0,4,2.38,10.36,4.78,13.14-2.76-2.62-4.82-7.26-5.9-11.75A25.76,25.76,0,0,0,140.58,143.68Zm6.89-5c2.58,2.15,6.56,1,7.75-.28-4.39-2.79-9.53-9.17-12.27-14.85,1.16,4.74,6.62,11.65,9.67,14.47-5.8-4.11-9.7-11.36-10.44-13.39.82,3.75,5.31,10.42,8.92,14.07a31,31,0,0,1-9.52-13.31c.61,3.74,4.61,10.84,7.62,13.27-3.33-2.23-6.72-7.29-8.25-12.36A24.41,24.41,0,0,0,147.47,138.72Zm7-4.55c2.91,1.67,6.59-.15,7.53-1.64-4.81-2-12.5-8.63-16-13.84,2,4.47,9.91,11.69,13.4,13.93-6.43-3-12.92-11-14-12.84,1.45,3.56,8.31,10.88,12.5,13.85-5.32-2.79-11.25-9.55-13-12.9,1.25,3.58,7.37,11.13,11.08,13.15a27.93,27.93,0,0,1-11.7-12.1A26.12,26.12,0,0,0,154.44,134.17Zm5.41-5.27c3.35,1.39,7-1.09,7.78-2.82-5.43-1.48-14.37-7.26-18.81-12.37,2.72,4.53,12.09,10.93,16.14,12.86-7.31-2.38-15.23-10.14-16.64-12,1.85,3.09,10.26,10.67,15.17,13.28-6.09-2.26-13.57-9.09-15.71-12.34,1.49,2.94,9.43,11.2,13.69,12.87a31.05,31.05,0,0,1-14.23-11.87C149.49,121.4,155.32,127,159.85,128.9Zm4-6.29c3.47,1.06,6.84-1.77,7.47-3.56-5.54-.94-14.81-6.34-19.72-11,3.14,4.24,12.95,9.87,17.17,11.4-7.51-1.66-16.32-8.66-17.91-10.38,2.15,2.9,11.59,9.86,16.72,12-6.28-1.66-14.72-7.84-17.16-10.87,1.77,2.79,10.6,10.51,15,11.75A31.56,31.56,0,0,1,150,111.27C152.72,115.93,159.17,121.17,163.86,122.61Zm-20.8,24.7c3.58,7.16,8.84,14.75,16.51,18.69.52-8-4.8-13.85-9.67-19.92,2.82,4.26,7.37,12,8.38,15.08-2.13-3.47-6.74-10.8-9.32-14.26,1.16,1.83,8.19,14.44,8.69,16-2.25-3.66-7.27-12-10.16-15.71a67.69,67.69,0,0,1,7.3,13.83c-2.12-3.47-6.25-10.3-8.86-13.56a51.91,51.91,0,0,1,5.75,11c-1.71-2.74-4.4-7.31-7.05-10.94a46.64,46.64,0,0,1,3.54,7C147.08,152.93,144.84,149.78,143.06,147.31Zm8.88-3.52c5.9,7.65,11.83,13.09,20.19,16.72-1.21-7.4-9.4-15.11-15.82-21,4,4.31,10.24,11.29,12.37,14.77-3.17-3.57-9.53-10.36-13-13.77,1.71,1.87,11.86,14,12.92,15.74-3.34-3.77-10.53-11.49-14.38-15.07,4.25,4.42,9.47,10.48,11.78,14.25-3.17-3.57-9.88-10.95-13.33-14.1a93.05,93.05,0,0,1,9.9,12.3c-2.52-2.81-7.6-8.45-11.24-12,2.73,3,5.47,6.41,7,8.45C156.75,148.6,154.4,146.24,151.94,143.79Zm7.21-4.75c7.41,7.35,14.53,12.34,24,15-2.34-7.74-12.2-14.83-19.91-20.19,5,4,12.56,10.63,15.34,14.06-3.9-3.38-11.67-9.74-15.91-12.9,2.09,1.77,14.69,13.33,16.06,15-4.11-3.57-12.9-10.81-17.53-14.1,5.17,4.13,11.62,9.87,14.63,13.59-3.89-3.37-12.13-10.33-16.26-13.21a100.47,100.47,0,0,1,12.33,11.77c-3.09-2.65-9.33-8-13.74-11.31,3.35,2.83,6.76,6.08,8.64,8.06C165,143.51,162.14,141.31,159.15,139Zm7.09-5.79c8.35,6.26,16.08,10.22,25.82,11.6-3.38-7.36-14.12-13-22.48-17.28,5.44,3.33,13.89,8.81,17.12,11.82-4.33-2.8-12.9-8-17.53-10.59,2.31,1.47,16.37,11.19,18,12.68-4.56-3-14.26-8.93-19.3-11.56,5.69,3.39,12.86,8.19,16.36,11.46-4.32-2.81-13.44-8.57-17.93-10.85a100.24,100.24,0,0,1,13.84,10c-3.44-2.2-10.34-6.62-15.16-9.31A116.57,116.57,0,0,1,174.6,138C172.63,136.88,169.51,135.09,166.24,133.25Zm2.17-17.61a6.08,6.08,0,0,0,6.85-4.34c-5.61-.4-15.12-4.81-20.46-9,3.54,3.92,13.85,8.58,18.2,9.69-7.64-.92-17.08-7-18.83-8.59,2.42,2.67,12.49,8.69,17.8,10.31-6.41-1-15.6-6.5-18.32-9.28,2,2.6,11.75,9.55,16.24,10.36-6.08-1.06-13.19-5.51-16.67-9.45C156.37,109.73,163.59,114.66,168.41,115.64Zm2.17-7.7a6.91,6.91,0,0,0,7-5.27c-7,.45-13.48-1.51-19.78-4.93,4,2.55,8.45,4.79,18.17,6.23-8.77.28-17.5-4.12-18.85-5.14,1.58,1.7,11.81,6.3,17,6.81-6.91,0-15.85-4.4-17.6-5.69,1.58,1.25,9,5.76,15.08,6.88a32.47,32.47,0,0,1-15.59-6.17C160.15,104.69,166.59,107.48,170.58,107.94Zm.86,18.35c9.68,4.41,18.25,6.65,28.25,5.88-5-6.58-16.92-9.86-26.18-12.26,6.15,2.12,15.77,5.72,19.64,8-4.92-1.85-14.61-5.18-19.77-6.69,2.62,1,18.75,7.54,20.67,8.67-5.2-2-16.16-5.76-21.75-7.27,6.4,2.12,14.6,5.33,18.8,7.82-4.92-1.85-15.26-5.58-20.23-6.87a102.3,102.3,0,0,1,16,6.88c-3.9-1.44-11.74-4.32-17.14-5.94,4.2,1.51,8.62,3.42,11.11,4.64C178.59,128.5,175.09,127.41,171.44,126.29Zm32.65-6.52c-2.9-3.62-17.24-7.57-26.32-8.67,6.8,1.49,16.46,4.09,21.26,6.36-5.07-1.38-16-4-21.14-4.81,7.28,1.63,17.12,4.42,22.13,6.8-5.35-1.46-17.14-4.36-22.85-5.35,6.58,1.52,14.65,3.71,19.06,5.8-5.07-1.3-15-3.7-20.07-4.52A117.64,117.64,0,0,1,191.89,120c-4-.79-11.16-2.42-16.71-3.53,4.12,1.1,8.66,2.47,11.53,3.39-2.92-.63-8-1.49-12.23-2.47C188.36,122.22,199.25,121,204.09,119.77ZM178.42,92c-5.68,1.26-10.12,2.15-17.81,1.48,3.26.8,11.74,1,16.18-.11-4.72,2.13-13.27,1.83-16.85,1.11,3,1.44,13.56,1.83,16.19,1.56a37.48,37.48,0,0,1-16.69-.67c3.92,1.87,12.12,3,15,2.91-2.76.71-12-.3-15.49-2.15,2.49,1.84,11.19,4.53,16,2.92C177,98.4,178.85,95.37,178.42,92Zm1.67-14.14c-2.38,2.55-7.84,6-11,7.68a40.87,40.87,0,0,0,9.1-3.43c-2.22,2.56-6.94,4.28-11.76,5.55,3.19.09,8.91-1.31,11-2-3.46,2.53-11,3.44-13.31,3.83,2.5.41,8.87-.08,10.53-.27-.49.46-8.37,2.17-12.47,2.43C171.09,92.27,181.39,91.8,180.09,77.89Zm-1.34,31.17c14.13.53,23.62.62,30.9-8.32-5.85-.92-20.27.43-29.43,2.28,8.27-1,20.26-1.81,25.47-1.6-6.28.45-19.71,2.28-25.61,3.29,7.67-.8,18.5-1.44,23.22-1.16-5.8.35-19.11,2.09-24.66,3,7.17-.55,17.24-1.13,21.5-.82-5.66.37-16.12,1.47-21.73,2.26a128.25,128.25,0,0,1,16.94-.15C191.43,108,184.07,108.53,178.75,109.06Zm1-8.64C198.09,97.16,209.16,91,211.38,83c-9.19.3-25.95,7.85-31,10,8.6-3.17,21.84-7.34,27.62-8.44-6.6,2.06-20.52,7.44-26.59,10,8-2.81,19.4-6.22,24.48-7.08-6.15,1.84-19.18,6.76-24.84,9.15,7.52-2.35,17.19-4.91,21.65-5.51-5.59,1.51-17.17,5.54-23,7.79,6.64-2,14.78-4.17,18.63-4.69C193.9,95.41,185.36,98.34,179.75,100.42Zm.57-9.52c10.46-4.73,29.29-16.74,31.8-22.78-17.61,5.47-24.1,8.63-31.61,13.73,5.66-2.49,16.52-8.64,26.75-11.33a160.82,160.82,0,0,0-26,13.55c7.49-4,19.57-9.72,24.84-11.43-6.44,3-20.72,11-24.7,13.56,4.7-2.34,16.14-8.38,22.34-10.9-7.68,4.26-22.55,13-22.61,13.26,3.31-1.78,13.51-7.13,18.16-9.55C195.12,82.09,183.63,88.87,180.32,90.9ZM118.68,214.62c-6.65-6.63-6.18-14.41-3.59-22.76-.69,4.57-1.14,9.58.06,14.75a41.5,41.5,0,0,1,1.49-12.55c-.45,2.94-.71,12,.35,16.32a81.61,81.61,0,0,1,1-14.84c-.05,4.59.28,13.64.67,17.78.38-4.14.71-13.19.67-17.78a80.67,80.67,0,0,1,1,14.84c1.06-4.36.8-13.38.35-16.32a41.5,41.5,0,0,1,1.49,12.55c1.21-5.17.75-10.18.07-14.75C124.86,200.21,125.33,208,118.68,214.62Zm10.88-28.42c.85,2.48,3,8.28,4.1,11.31-.43-2.76-2.15-9-3.9-14.91a100.46,100.46,0,0,1,4.88,12.6c-.16-3-2.12-9-4.39-14.42a43.26,43.26,0,0,1,5,11.05c-.22-1.93-.37-3.91-2.73-10.58,2.85,4.29,5.26,12.47,1.51,18.19C131.44,195.62,130,190.09,129.56,186.2Zm-6.67-6c.23,3.41,1,9.09,3,12a13.11,13.11,0,0,0,2.19-11.67c.39,1.22,0,7.17-1.22,9.38a17.43,17.43,0,0,0-.64-9.5,23.37,23.37,0,0,1-.34,10.77,32.49,32.49,0,0,0-1.46-11,48,48,0,0,1,.58,9A72.91,72.91,0,0,0,122.89,180.16Zm1.5,11.93c.48,2.9,2.5,11,3.24,14.59,0-3.94-1.12-10.25-1.17-13.59.71,3,1.8,8,2.3,11.38.28-3-.29-7.92-.91-12.72.86,3,1.25,5.77,2,9.44a35.66,35.66,0,0,0-.76-11.36c2.06,5.53,3,13.53-1.55,18.78C125.53,204.53,124.24,196,124.39,192.09Zm-16.45-5.89c-.86,2.48-3,8.28-4.1,11.31.43-2.76,2.14-9,3.89-14.91a98.69,98.69,0,0,0-4.87,12.6c.15-3,2.12-9,4.38-14.42a42.86,42.86,0,0,0-4.95,11.05c.22-1.93.37-3.91,2.72-10.58-2.85,4.29-5.25,12.47-1.5,18.19C106.05,195.62,107.51,190.09,107.94,186.2Zm6.67-6c-.24,3.41-1,9.09-3,12a13.14,13.14,0,0,1-2.19-11.67c-.39,1.22,0,7.17,1.22,9.38a17.43,17.43,0,0,1,.64-9.5,23.35,23.35,0,0,0,.35,10.77,32,32,0,0,1,1.46-11,48,48,0,0,0-.59,9A71.37,71.37,0,0,1,114.61,180.16Zm-1.5,11.93c-.48,2.9-2.5,11-3.25,14.59,0-3.94,1.12-10.25,1.18-13.59-.72,3-1.81,8-2.3,11.38-.28-3,.29-7.92.91-12.72-.86,3-1.26,5.77-2,9.44a35.8,35.8,0,0,1,.77-11.36c-2.06,5.53-3,13.53,1.54,18.78C112,204.53,113.25,196,113.11,192.09Zm5.58,3.25c-4.34-5.33-4.21-8.72-2.53-15.41h0a22.12,22.12,0,0,0,.21,8.95,32.15,32.15,0,0,1,.88-9,50.69,50.69,0,0,0,.32,12,81.13,81.13,0,0,1,.67-12c0,3.7.19,11,.44,14.35.25-3.35.47-10.65.44-14.35a81.07,81.07,0,0,1,.66,12,51.16,51.16,0,0,0,.48-12,31.63,31.63,0,0,1,.72,8.92,22.87,22.87,0,0,0,.41-9h0C123.07,186.55,123,190,118.69,195.34ZM109,158.48a9.83,9.83,0,0,1,.65-1,7.21,7.21,0,0,0-1.1.91A2.36,2.36,0,0,1,109,158.48Zm-1.7.13a13.21,13.21,0,0,1,1.64-2.67,9.9,9.9,0,0,0-3,3.69l.24.21s0,0,0,0a1.87,1.87,0,0,1,.76-1.07Zm37.91,5.2c-5.62-2.76-8.15-6.6-10-12.6,1.1,2.07,2.88,5,3.56,6.24a26.45,26.45,0,0,0-2.25-6.12,41.84,41.84,0,0,1,3.86,7.39,21.63,21.63,0,0,0-2.74-7.37,41,41,0,0,1,4.83,9.54A31.62,31.62,0,0,0,139,151.1a58.32,58.32,0,0,1,5.47,11c-.46-3.39-2.93-9-4.17-11.22a43.81,43.81,0,0,1,4.77,9.16,29.37,29.37,0,0,0-3.83-9.84C142.93,152.43,147,157.1,145.19,163.81Zm-43.5-3.25.1,0a1.84,1.84,0,0,1,.52-1.17,2.68,2.68,0,0,1,3.5.15,8.38,8.38,0,0,1,2.16-4.39,8.13,8.13,0,0,0-3.63,3.59c.21-1.82,1.67-4.13,2.83-5.55-1.46.86-2.58,2.16-4.18,5.19.61-2.21,1.58-5.38,3.93-7.45-5.7,3.83-4,7.26-5.76,9.32A2.62,2.62,0,0,1,101.69,160.56Z"/><path class="cls-3" d="M79.22,186.33a45.68,45.68,0,0,1,12.75.88,80,80,0,0,0-20.43,8,35.26,35.26,0,0,1,3.91-9.44,75.05,75.05,0,0,0-9.75-2.25,63.5,63.5,0,0,1,10-5.51l3.42,8.39ZM90,182.71c.43.9.84,1.8,1.2,2.65a52.11,52.11,0,0,0-7.26-.78C85.91,183.91,87.94,183.29,90,182.71Zm69.06,3.63a45.33,45.33,0,0,0-12.79.87,79.8,79.8,0,0,1,20.43,8,34.93,34.93,0,0,0-3.91-9.44,75.05,75.05,0,0,1,9.75-2.25,62,62,0,0,0-10-5.49l-3.41,8.37Zm-10.85-3.63c-.43.9-.84,1.8-1.2,2.65a49.53,49.53,0,0,1,7.29-.78C152.38,183.91,150.35,183.28,148.24,182.71Zm-20.7-19.34c-2.81-.18-5.61-.26-8.39-.26s-5.83.09-8.77.29a4.74,4.74,0,0,0,.09-.85,2.15,2.15,0,0,0,.28-.59c2.74-.18,5.55-.27,8.4-.27s5.4.08,8,.24a1.84,1.84,0,0,0,.28.62A4.27,4.27,0,0,0,127.54,163.37ZM163,176.78c4.31,2,9.65,4.93,12.6,7.46A59.25,59.25,0,0,0,165,186.51c1.25,2.09,3.76,8.92,3.53,11.31a78.38,78.38,0,0,0-24.26-9.63c.61-1.65,1.46-3.72,2.4-5.9a110.64,110.64,0,0,0-55.1,0c.94,2.17,1.78,4.24,2.4,5.89a78.44,78.44,0,0,0-24.27,9.63c-.23-2.39,2.28-9.22,3.53-11.31a59.35,59.35,0,0,0-10.61-2.27c3-2.53,8.3-5.44,12.61-7.47l-2.17-5.33a84.73,84.73,0,0,1,25.25-8.05,2.27,2.27,0,0,0,1,1.23,87.51,87.51,0,0,0-24.46,7.48L80,184.52a111.18,111.18,0,0,1,78.4,0l5.06-12.42a87.45,87.45,0,0,0-24.77-7.52,2.34,2.34,0,0,0,1-1.25,85,85,0,0,1,25.59,8.11Z"/><path class="cls-2" d="M109.84,159.88a1.81,1.81,0,0,0-2.36-.58,1.91,1.91,0,0,0-.49,1.95c.13.91,0,.74.61,1.35a1.5,1.5,0,0,1,2.11-.45.54.54,0,0,0,.2-.31,1.9,1.9,0,0,0-2.46-.11,2.2,2.2,0,0,1,2.58-.34c0-.09,0-.19,0-.29,0-.46.1-.87-.2-1.22"/><path class="cls-2" d="M105.53,160.28c-.76-.74-1.89-1.16-2.58-.49-.52.51-.34,1.43-.06,2.26.35,1,.22.84,1,1.49.39-.76,1.09-.77,2-.52a1.09,1.09,0,0,0,.24-.51c-.08-.28-1.48-.49-2.4.53a2.06,2.06,0,0,1,2.41-1c0-.11,0-.22,0-.34a2.32,2.32,0,0,0-.49-1.38"/><path class="cls-2" d="M109.64,162.62a6.67,6.67,0,0,1-.75,2.61,11.65,11.65,0,0,1-.89-2.35c0-.09.29-.53.57-.6a9.61,9.61,0,0,1,.26,2.25,6.67,6.67,0,0,0,.12-2.29c.38,0,.57.08.69.38"/><path class="cls-2" d="M105.76,163.68a6,6,0,0,1-.89,2.55,6.73,6.73,0,0,0-.76-2.29.86.86,0,0,1,.51-.53,5,5,0,0,1,.39,2,5.6,5.6,0,0,0,.1-2.06.72.72,0,0,1,.65.29"/><path class="cls-2" d="M102,164.14c0,.71.3,1.28.42,2.24a5.51,5.51,0,0,1-2.1-2c0-.08.25-.37.4-.41a4,4,0,0,0,1.27,1.75,4.28,4.28,0,0,1-1-1.85.82.82,0,0,1,1,.24"/><path class="cls-2" d="M101.33,161.33a1.81,1.81,0,0,0-2.47-.4c-.45.44-.2,1.24.14,2,.41.9.27.74,1,1.3.68-.86,1.27-.83,1.81-.48a.84.84,0,0,0,.19-.45c-.1-.24-1.39-.41-2.18.49.11-.74,1.7-1.15,2.15-.94a5,5,0,0,0-.66-1.48"/><path class="cls-2" d="M128.09,159.88a1.81,1.81,0,0,1,2.36-.58c.59.4.59,1.21.49,1.95-.13.91,0,.74-.61,1.35a1.5,1.5,0,0,0-2.11-.45c-.16-.13-.14-.16-.21-.31a1.91,1.91,0,0,1,2.47-.11,2.18,2.18,0,0,0-2.57-.34,2.64,2.64,0,0,1,0-.29c0-.46-.1-.87.2-1.22"/><path class="cls-2" d="M132.4,160.28c.76-.74,1.89-1.16,2.58-.49.52.51.34,1.43.06,2.26-.35,1-.22.84-1,1.49-.38-.76-1.08-.77-2-.52a1.09,1.09,0,0,1-.24-.51c.08-.28,1.48-.49,2.4.53a2.06,2.06,0,0,0-2.41-1c0-.11,0-.22,0-.34a2.32,2.32,0,0,1,.49-1.38"/><path class="cls-2" d="M128.29,162.62a6.51,6.51,0,0,0,.75,2.61,11.08,11.08,0,0,0,.88-2.35,1.12,1.12,0,0,0-.56-.6,9.61,9.61,0,0,0-.26,2.25,6.67,6.67,0,0,1-.12-2.29c-.38,0-.57.08-.69.38"/><path class="cls-2" d="M132.17,163.68a6,6,0,0,0,.89,2.55,7,7,0,0,1,.76-2.29.86.86,0,0,0-.51-.53,5,5,0,0,0-.39,2,5.6,5.6,0,0,1-.1-2.06.72.72,0,0,0-.65.29"/><path class="cls-2" d="M136,164.14c0,.71-.3,1.28-.42,2.24a5.51,5.51,0,0,0,2.1-2c0-.08-.25-.37-.4-.41a4,4,0,0,1-1.27,1.75,4.28,4.28,0,0,0,1-1.85.82.82,0,0,0-1,.24"/><path class="cls-2" d="M136.6,161.33a1.81,1.81,0,0,1,2.47-.4c.45.44.2,1.24-.14,2-.41.9-.27.74-1,1.3-.68-.86-1.26-.83-1.81-.48a.84.84,0,0,1-.19-.45c.1-.24,1.39-.41,2.18.49-.11-.74-1.7-1.15-2.15-.94a5,5,0,0,1,.66-1.48"/><path class="cls-4" d="M92,171.61c.21.84.31,1.26.53,2.09s.92,1,1.79.72,1.5-.75,1.33-1.53l-.45-2.11.88-.21.43,2.08c.23,1.1-.73,1.78-2.13,2.15s-2.42.23-2.71-.87l-.55-2.07Z"/><path class="cls-4" d="M109.77,171.49a5.21,5.21,0,0,0,1.55.12c.88-.06,1.38-.34,1.37-.71s-.38-.53-1.29-.65c-1.1-.14-1.81-.37-1.84-.89s.82-1.07,2.15-1.15a5,5,0,0,1,1.53.09l-.24.4a4.15,4.15,0,0,0-1.3-.1c-.93.06-1.27.39-1.26.64s.44.47,1.38.6c1.15.17,1.74.44,1.75,1s-.73,1.07-2.29,1.18a5.72,5.72,0,0,1-1.69-.1C109.66,171.74,109.7,171.66,109.77,171.49Z"/><path class="cls-4" d="M127.8,168.58l-.45,3.61-.85-.08c.17-1.45.25-2.17.42-3.62Z"/><path class="cls-4" d="M141.82,174.83c-.43-1.62-.66-2.43-1.16-4.05l.94.23c.22.8.33,1.2.54,2a10.74,10.74,0,0,1,.31,1.49h0a10.82,10.82,0,0,1,1.13-1.09l1.65-1.4.92.28c-1.41,1.09-2.1,1.65-3.43,2.79Z"/><circle class="cls-1" cx="119.67" cy="120.36" r="97.44"/><path class="cls-5" d="M28.76,52.9l5.63,4.4c2.13,1.66,3.78,1.42,4.77.15s.88-3-1.23-4.69l-5.63-4.4,1-1.24,5.55,4.34c2.92,2.28,2.92,4.75,1.31,6.82s-3.79,2.54-6.74.24l-5.6-4.38Z"/><path class="cls-5" d="M46.09,49.65A1.06,1.06,0,0,1,46,48.09a1.13,1.13,0,1,1,.06,1.56Z"/><path class="cls-5" d="M51.2,43.3a5.57,5.57,0,0,0,2.65-1.19c1.22-1,1.39-2.27.61-3.2s-1.63-.95-3.28-.38c-2,.73-3.56.73-4.65-.58s-.91-3.51.89-5a5.52,5.52,0,0,1,2.43-1.26l.49,1.25a4.86,4.86,0,0,0-2.13,1C47,35,47.1,36.17,47.63,36.8c.72.87,1.64.82,3.33.25,2.08-.71,3.51-.62,4.65.74s1.17,3.55-1,5.38a6.28,6.28,0,0,1-2.86,1.39Z"/><path class="cls-5" d="M61.84,36.21a1.07,1.07,0,1,1,1.51.35A1.05,1.05,0,0,1,61.84,36.21Z"/><path class="cls-5" d="M72.39,17.42l5.13,10.93L76.11,29,71,18.08Z"/><path class="cls-5" d="M91.82,17.45c-.59-1.58-1.31-3.48-1.74-4.92l0,0c0,1.47,0,3-.07,4.83l-.27,6.23L88.56,24,85,19.07c-1.06-1.45-2-2.79-2.75-4.06l0,0c.41,1.44.94,3.4,1.38,5.16l1.26,5-1.42.45L80.57,13.9l1.9-.6,3.72,4.95c.93,1.26,1.72,2.4,2.39,3.51l0,0c-.08-1.25-.07-2.64,0-4.26l.29-6.22,1.89-.6L95.16,22l-1.45.46Z"/><path class="cls-5" d="M110.93,14.05c-.3-1.66-.66-3.65-.83-5.15h0c-.24,1.45-.54,3-.94,4.74l-1.38,6.09-1.17.14-2.66-5.46c-.79-1.62-1.46-3.1-2-4.48h0c.16,1.5.32,3.52.44,5.33l.34,5.18-1.48.19L100.5,8.55l2-.25,2.78,5.53c.69,1.42,1.26,2.68,1.72,3.89h0c.15-1.25.41-2.62.76-4.2l1.39-6.06,2-.25,2.26,11.89-1.51.19Z"/><path class="cls-5" d="M121.52,7l-.07,12.08h-1.56L120,7Z"/><path class="cls-5" d="M137.36,19.88a11.1,11.1,0,0,1-3.76.2,6.18,6.18,0,0,1-4.29-2.14,6.24,6.24,0,0,1-1.11-4.67c.46-3.57,3.24-5.88,7.26-5.38a7.71,7.71,0,0,1,2.92.93L137.85,10a6.37,6.37,0,0,0-2.59-.84,4.52,4.52,0,0,0-5.42,4.22c-.38,3,1.23,5.06,4,5.41a5,5,0,0,0,2.1-.07l.45-3.57-2.44-.3.16-1.25,4,.49Z"/><path class="cls-5" d="M146.78,10.29a16.38,16.38,0,0,1,2.95.56,4.93,4.93,0,0,1,3.11,1.88,3,3,0,0,1,.3,2.46,3.16,3.16,0,0,1-3,2.36l0,.06a3,3,0,0,1,1.06,2.82,18.7,18.7,0,0,0,0,3.44l-1.56-.43a15.73,15.73,0,0,1,0-3c.1-1.71-.35-2.48-1.7-2.91l-1.42-.39-1.39,5-1.5-.42Zm0,5.72,1.53.42c1.61.44,2.87-.15,3.24-1.48.42-1.5-.49-2.46-2.08-2.92a6.46,6.46,0,0,0-1.52-.27Z"/><path class="cls-5" d="M160.07,23.17l-2.68,3-1.48-.65,8.61-9.43,1.72.76-1.06,12.72-1.53-.67.34-4Zm4.12.47.3-3.66c.07-.84.2-1.56.31-2.28h0c-.45.58-.93,1.18-1.43,1.76l-2.49,2.73Z"/><path class="cls-5" d="M176.55,23.62l-3.16-1.88.68-1.13,7.69,4.57-.68,1.14-3.17-1.89-5.5,9.24-1.35-.8Z"/><path class="cls-5" d="M188.39,29.92l-7.22,9.69-1.25-.93L187.14,29Z"/><path class="cls-5" d="M198.22,46.43c-2.87,3-6.22,2.86-8.45.74s-2.23-5.54.3-8.18,6.1-3,8.43-.73S200.69,43.83,198.22,46.43Zm-6.92-6.32c-1.78,1.87-2.36,4.51-.59,6.2s4.38,1,6.27-1c1.65-1.73,2.47-4.41.59-6.21S193.13,38.19,191.3,40.11Z"/><path class="cls-5" d="M198,55.48l9.6-7.32,1,1.36L206.1,56.3a32.72,32.72,0,0,1-1.81,4.1l0,0c1.2-1.09,2.34-2,3.84-3.15l4-3.06.89,1.16-9.61,7.32-.95-1.25,2.55-6.76a36,36,0,0,1,1.84-4.24l0,0c-1.16,1-2.29,1.9-3.89,3.11l-4.1,3.13Z"/><path class="cls-5" d="M23.53,174.57l-3.9.89-.83-1.38,12.45-2.73,1,1.61L24,182.73l-.86-1.43,2.58-3.07Zm3.09,2.76L29,174.52c.54-.64,1.06-1.16,1.57-1.68l0,0c-.71.22-1.44.43-2.19.61l-3.6.79Z"/><path class="cls-5" d="M27.62,187.79,37,180.18l1.07,1.32-2.3,6.85a34.43,34.43,0,0,1-1.69,4.16l0,0c1.16-1.13,2.28-2.08,3.74-3.27l3.93-3.18.92,1.14-9.38,7.61-1-1.23,2.34-6.84a40.35,40.35,0,0,1,1.71-4.29l0,0c-1.12,1-2.23,2-3.79,3.24l-4,3.25Z"/><path class="cls-5" d="M46.31,191.3a22,22,0,0,1,2.61,2.06,6.9,6.9,0,0,1,2.57,4.42,5.53,5.53,0,0,1-1.69,4.35,6.39,6.39,0,0,1-4.46,2.27,7.49,7.49,0,0,1-5.1-2.35,26,26,0,0,1-2-2Zm-6.09,8.9a10.15,10.15,0,0,0,1.1,1.14c2.44,2.26,5,2.12,7.25-.28,1.94-2.08,2-4.51-.44-6.74a8.14,8.14,0,0,0-1.45-1.12Z"/><path class="cls-5" d="M58.83,216.27l2.9-12.37,1.44.88-1.48,6.06c-.4,1.66-.78,3.15-1.24,4.53l0,0c1-1,2.24-2.06,3.52-3.13l4.84-4,1.42.86-10,8.08Z"/><path class="cls-5" d="M75.62,211.66,70.4,222.55,69,221.88,74.22,211Z"/><path class="cls-5" d="M77.23,223.51a5.49,5.49,0,0,0,2.35,1.71c1.49.56,2.66.09,3.08-1.05s0-1.89-1.3-3c-1.6-1.34-2.39-2.72-1.8-4.32.65-1.76,2.6-2.53,4.8-1.71a5.53,5.53,0,0,1,2.3,1.48l-.84,1a4.87,4.87,0,0,0-1.95-1.33c-1.55-.57-2.48.13-2.77.9-.39,1.06.1,1.84,1.44,3,1.65,1.45,2.28,2.74,1.66,4.4s-2.5,2.78-5.17,1.79a6.14,6.14,0,0,1-2.62-1.79Z"/><path class="cls-5" d="M92.05,226.34,90,229.75l-1.57-.36,6.74-10.83L97,219l1.27,12.7-1.62-.37-.39-4Zm4.14-.29-.36-3.65c-.09-.83-.1-1.57-.11-2.29h0c-.34.66-.7,1.33-1.09,2l-2,3.14Z"/><path class="cls-5" d="M114.3,229.63,113,233.39l-1.61,0,4.4-12,1.88.05,3.83,12.17-1.67,0-1.2-3.83Zm4-1.13-1.1-3.5c-.25-.8-.41-1.52-.57-2.22h0c-.2.71-.41,1.44-.66,2.17l-1.27,3.47Z"/><path class="cls-5" d="M127.16,231.37a5.58,5.58,0,0,0,2.86.5c1.59-.16,2.43-1.1,2.31-2.31s-.83-1.7-2.51-2.16c-2-.49-3.35-1.39-3.52-3.08-.19-1.87,1.22-3.42,3.55-3.66a5.53,5.53,0,0,1,2.72.32l-.3,1.31a4.85,4.85,0,0,0-2.34-.34c-1.64.17-2.16,1.21-2.08,2,.11,1.12.9,1.6,2.62,2.08,2.12.58,3.25,1.45,3.43,3.22s-1,3.59-3.86,3.88a6.22,6.22,0,0,1-3.14-.45Z"/><path class="cls-5" d="M140,229.69a5.57,5.57,0,0,0,2.91.17c1.55-.34,2.28-1.36,2-2.55s-1-1.6-2.74-1.86c-2.07-.26-3.48-1-3.85-2.66-.4-1.84.82-3.54,3.11-4a5.49,5.49,0,0,1,2.74,0l-.15,1.34a4.79,4.79,0,0,0-2.36-.07c-1.61.35-2,1.45-1.84,2.26.25,1.1,1.08,1.48,2.85,1.76,2.16.33,3.39,1.07,3.77,2.8s-.6,3.69-3.38,4.31a6.15,6.15,0,0,1-3.18-.1Z"/><path class="cls-5" d="M161.05,219c1.41,3.91-.21,6.84-3.11,7.89s-5.95-.49-7.19-3.93c-1.3-3.6.09-6.77,3.13-7.86S159.84,215.66,161.05,219Zm-8.74,3.36c.87,2.43,3,4.13,5.28,3.3s2.87-3.45,1.94-6c-.82-2.26-2.85-4.19-5.29-3.31S151.41,219.9,152.31,222.39Z"/><path class="cls-5" d="M176.29,217.85a7.79,7.79,0,0,1-2.56,2c-3,1.58-6.28.87-8.12-2.64a6,6,0,0,1,2.63-8.54,6.52,6.52,0,0,1,2.79-.86l.26,1.3a5.61,5.61,0,0,0-2.39.69c-2.51,1.31-3.33,3.79-1.86,6.6,1.37,2.62,3.76,3.51,6.37,2.14a6.31,6.31,0,0,0,2-1.62Z"/><path class="cls-5" d="M176.37,203.93,183,214l-1.3.86-6.67-10.06Z"/><path class="cls-5" d="M187.86,205.8l1.44,3.73-1.24,1-4.52-11.93,1.46-1.19,10.86,6.7-1.29,1.06-3.41-2.11Zm2.28-3.46L187,200.41c-.71-.44-1.3-.88-1.88-1.3l0,0c.32.67.63,1.36.92,2.07l1.31,3.45Z"/><path class="cls-5" d="M193.12,191.72l-2.55,2.64-1-.92,6.21-6.43,1,.92-2.57,2.65,7.74,7.47-1.1,1.13Z"/><path class="cls-5" d="M199.58,182.34l9.45,7.52-1,1.22-9.45-7.52Z"/><path class="cls-5" d="M213.57,172.21c3.52,2.22,4,5.53,2.4,8.14s-5,3.28-8.08,1.33-4.1-5.39-2.38-8.12S210.54,170.31,213.57,172.21Zm-4.82,8c2.19,1.38,4.89,1.42,6.19-.65s.14-4.49-2.18-5.95c-2-1.28-4.83-1.55-6.21.65S206.5,178.84,208.75,180.25Z"/><path class="cls-5" d="M221.84,169.74,210.74,165l.67-1.56,7.14-1.15a33.65,33.65,0,0,1,4.46-.45v0c-1.54-.5-2.9-1.05-4.63-1.79l-4.65-2,.58-1.35,11.1,4.76-.62,1.45L217.65,164a40.49,40.49,0,0,1-4.6.49v0c1.43.52,2.78,1.06,4.63,1.85l4.74,2Z"/><path class="cls-6" d="M159.73,43.3c-8.79-8.54-17.58,8.54-26.38,0V47c8.8,8.54,17.59-8.54,26.38,0Z"/><path class="cls-6" d="M159.73,50.6c-8.79-8.54-17.58,8.54-26.38,0v3.65c8.8,8.54,17.59-8.54,26.38,0Z"/><path class="cls-6" d="M159.73,57.9c-8.79-8.54-17.58,8.54-26.38,0v3.65c8.8,8.54,17.59-8.54,26.38,0Z"/><path class="cls-6" d="M159.73,65.2c-8.79-8.54-17.58,8.54-26.38,0v3.65c8.8,8.54,17.59-8.54,26.38,0Z"/><path class="cls-6" d="M159.73,72.5c-8.79-8.54-17.58,8.54-26.38,0v3.65c8.8,8.54,17.59-8.54,26.38,0Z"/><path class="cls-6" d="M159.73,79.8c-8.79-8.54-17.58,8.54-26.38,0v3.65c8.8,8.54,17.59-8.54,26.38,0Z"/><path class="cls-7" d="M159.73,39.65c-8.79-8.54-17.58,8.54-26.38,0V43.3c8.8,8.54,17.59-8.54,26.38,0Z"/><path class="cls-7" d="M159.73,47c-8.79-8.54-17.58,8.54-26.38,0V50.6c8.8,8.54,17.59-8.54,26.38,0Z"/><path class="cls-7" d="M159.73,54.25c-8.79-8.54-17.58,8.54-26.38,0V57.9c8.8,8.54,17.59-8.54,26.38,0Z"/><path class="cls-7" d="M159.73,61.55c-8.79-8.54-17.58,8.54-26.38,0V65.2c8.8,8.54,17.59-8.54,26.38,0Z"/><path class="cls-7" d="M159.73,68.85c-8.79-8.54-17.58,8.54-26.38,0V72.5c8.8,8.54,17.59-8.54,26.38,0Z"/><path class="cls-7" d="M159.73,76.15c-8.79-8.54-17.58,8.54-26.38,0V79.8c8.8,8.54,17.59-8.54,26.38,0Z"/><path class="cls-7" d="M159.73,83.45c-8.79-8.54-17.58,8.54-26.38,0V87.1c8.8,8.54,17.59-8.54,26.38,0Z"/><path class="cls-7" d="M133.35,87.1a12.64,12.64,0,0,0,0-3.65s-1,3.2,0,4.15a6.58,6.58,0,0,0,4.38,1.87c1.79.08-.86-2.17-1-2.13S133.35,87.1,133.35,87.1Z"/><path class="cls-8" d="M139.51,83.78s-.15,1.21-1.92.38S133,83.85,133,87a5,5,0,0,1-.32-2.06l.21-4.32S138.14,80,139.51,83.78Z"/><path class="cls-9" d="M132.78,83a4.52,4.52,0,0,1,5.11-.49l-.62-2s-3-1-4.38.53Z"/><path class="cls-10" d="M139.34,80.15c-20.17-14.23-40.35,14.24-60.53,0V76.5c20.18,14.24,40.36-14.23,60.53,0Z"/><path class="cls-10" d="M139.34,72.85c-20.17-14.23-40.35,14.24-60.53,0V69.2C99,83.44,119.17,55,139.34,69.2Z"/><path class="cls-10" d="M139.34,65.55c-20.17-14.23-40.35,14.24-60.53,0V61.9c20.18,14.24,40.36-14.23,60.53,0Z"/><path class="cls-10" d="M139.34,58.25C119.17,44,99,72.49,78.81,58.25V54.6c20.18,14.24,40.36-14.23,60.53,0Z"/><path class="cls-10" d="M139.34,51C119.17,36.72,99,65.19,78.81,51V47.3c20.18,14.24,40.36-14.23,60.53,0Z"/><path class="cls-10" d="M139.34,43.65c-20.17-14.23-40.35,14.24-60.53,0V40C99,54.24,119.17,25.77,139.34,40Z"/><path class="cls-11" d="M139.34,83.8C119.17,69.57,99,98,78.81,83.8V80.15c20.18,14.24,40.36-14.23,60.53,0Z"/><path class="cls-11" d="M139.34,76.5C119.17,62.27,99,90.74,78.81,76.5V72.85c20.18,14.24,40.36-14.23,60.53,0Z"/><path class="cls-11" d="M139.34,69.2C119.17,55,99,83.44,78.81,69.2V65.55c20.18,14.24,40.36-14.23,60.53,0Z"/><path class="cls-11" d="M139.34,61.9C119.17,47.67,99,76.14,78.81,61.9V58.25C99,72.49,119.17,44,139.34,58.25Z"/><path class="cls-11" d="M139.34,54.6C119.17,40.37,99,68.84,78.81,54.6V51C99,65.19,119.17,36.72,139.34,51Z"/><path class="cls-11" d="M139.34,47.3C119.17,33.07,99,61.54,78.81,47.3V43.65c20.18,14.24,40.36-14.23,60.53,0Z"/><path class="cls-11" d="M139.34,40C119.17,25.77,99,54.24,78.81,40V36.35c20.18,14.24,39.35-14.23,59.53,0C139.65,37.19,139.34,38.79,139.34,40Z"/><path class="cls-12" d="M120.7,58.41c-14,2.74-27.93,13.34-41.89,3.49V36.35c14,9.85,27.92-.75,41.89-3.49Z"/><path class="cls-10" d="M82.18,39.39c.14.32.27.64.4,1l.88.51-.64.32.15.9-.79-.75h-.79l.15-.76-.63-.94.88.35Z"/><path class="cls-10" d="M89.24,41.38l.39.8c.3.07.59.13.89.18l-.64.56.15.85-.79-.46-.79.3.15-.82L88,42.1h.88C89,41.87,89.1,41.62,89.24,41.38Z"/><path class="cls-10" d="M96.29,41.1l.39.69.89,0-.64.72.15.81L96.29,43l-.79.52.15-.86L95,42.17l.88-.25C96,41.65,96.16,41.37,96.29,41.1Z"/><path class="cls-10" d="M103.34,39.34c.13.22.26.43.4.64l.88-.16-.64.8.15.79-.79-.14-.79.64.15-.89-.64-.4.88-.39C103.08,39.93,103.21,39.64,103.34,39.34Z"/><path class="cls-10" d="M110.39,36.93l.4.62.88-.18c-.21.27-.43.54-.64.82l.15.78-.79-.12-.79.68.15-.9-.64-.36.89-.44Z"/><path class="cls-10" d="M117.45,34.67l.39.65.88-.1-.64.76c.06.26.1.53.15.8l-.78-.19-.8.62c0-.3.11-.59.15-.89l-.63-.4.88-.38C117.18,35.25,117.31,35,117.45,34.67Z"/><path class="cls-10" d="M86,43.44c.13.29.26.58.4.87l.88.31-.64.46.15.87L86,45.37l-.79.17.15-.8L84.71,44l.88.15C85.73,43.88,85.86,43.66,86,43.44Z"/><path class="cls-10" d="M93,44.1l.4.74.88,0c-.21.22-.42.44-.64.65l.15.83L93,46l-.79.43.15-.85L91.76,45l.89-.14Z"/><path class="cls-10" d="M100.09,42.93l.4.65c.29,0,.59-.07.88-.12-.21.26-.42.52-.64.77,0,.27.11.54.15.8l-.79-.18c-.26.2-.52.4-.79.59,0-.29.11-.58.16-.87l-.64-.44.88-.34Z"/><path class="cls-10" d="M107.15,40.71l.39.63.89-.19c-.22.27-.43.55-.64.82l.15.79-.79-.12-.79.67.15-.89-.64-.38.88-.43C106.88,41.31,107,41,107.15,40.71Z"/><path class="cls-10" d="M114.2,38.28l.39.64c.3-.06.59-.11.89-.15-.22.26-.43.52-.64.79l.15.79-.79-.15-.79.66.15-.89-.64-.38.88-.42C113.93,38.88,114.07,38.58,114.2,38.28Z"/><path class="cls-10" d="M82.18,44.68c.14.32.27.63.4,1l.88.5c-.21.11-.42.22-.64.32l.15.91-.79-.76h-.79l.15-.76-.63-.94.88.35Z"/><path class="cls-10" d="M89.24,46.67l.39.8c.3.07.59.13.89.18l-.64.56.15.85-.79-.46-.79.3.15-.82L88,47.39h.88C89,47.15,89.1,46.91,89.24,46.67Z"/><path class="cls-10" d="M96.29,46.38l.39.7.89,0-.64.72.15.81-.79-.26-.79.51.15-.86-.64-.5.88-.25C96,46.94,96.16,46.66,96.29,46.38Z"/><path class="cls-10" d="M103.34,44.63c.13.21.26.43.4.64l.88-.17-.64.81.15.79-.79-.15-.79.64.15-.88-.64-.4.88-.39C103.08,45.22,103.21,44.93,103.34,44.63Z"/><path class="cls-10" d="M110.39,42.22l.4.62.88-.18-.64.81.15.79-.79-.12-.79.67.15-.89-.64-.37.89-.43Z"/><path class="cls-10" d="M117.45,40l.39.66.88-.1-.64.75c.06.27.1.54.15.8l-.78-.18-.8.61c0-.29.11-.58.15-.88l-.63-.41.88-.37C117.18,40.53,117.31,40.24,117.45,40Z"/><path class="cls-10" d="M86,48.73c.13.29.26.58.4.86l.88.32-.64.46.15.87L86,50.65c-.26.07-.53.12-.79.18l.15-.8c-.21-.26-.42-.53-.64-.79l.88.15C85.73,49.17,85.86,49,86,48.73Z"/><path class="cls-10" d="M93,49.39l.4.74.88,0-.64.65.15.83L93,51.32c-.26.14-.52.29-.79.42l.15-.84-.64-.58c.3,0,.59-.09.89-.15Z"/><path class="cls-10" d="M100.09,48.21c.14.22.27.44.4.66l.88-.12c-.21.26-.42.52-.64.77,0,.27.11.53.15.8l-.79-.19c-.26.21-.52.4-.79.6,0-.29.11-.58.16-.88-.22-.14-.43-.29-.64-.44l.88-.33Z"/><path class="cls-10" d="M107.15,46l.39.63.89-.19c-.22.27-.43.54-.64.82l.15.78c-.27,0-.53-.07-.79-.12l-.79.67.15-.89-.64-.37.88-.43C106.88,46.6,107,46.3,107.15,46Z"/><path class="cls-10" d="M114.2,43.57l.39.64.89-.16c-.22.26-.43.53-.64.79l.15.8-.79-.15-.79.66.15-.89-.64-.38.88-.42C113.93,44.16,114.07,43.86,114.2,43.57Z"/><path class="cls-10" d="M82.18,50c.14.31.27.63.4,1l.88.5c-.21.11-.42.22-.64.32l.15.91-.79-.76h-.79l.15-.76c-.21-.3-.42-.62-.63-.94.29.13.58.25.88.35Z"/><path class="cls-10" d="M89.24,52l.39.8.89.18-.64.55.15.85c-.27-.14-.53-.3-.79-.46l-.79.3.15-.82c-.22-.22-.43-.45-.64-.68h.88C89,52.44,89.1,52.2,89.24,52Z"/><path class="cls-10" d="M96.29,51.67l.39.7.89,0-.64.71.15.81-.79-.25-.79.51.15-.86L95,52.74l.88-.24C96,52.22,96.16,52,96.29,51.67Z"/><path class="cls-10" d="M103.34,49.92l.4.64.88-.17-.64.8.15.79-.79-.14-.79.64.15-.88-.64-.41c.3-.12.59-.25.88-.39S103.21,50.21,103.34,49.92Z"/><path class="cls-10" d="M110.39,47.5l.4.63.88-.19c-.21.28-.43.55-.64.82l.15.79-.79-.12-.79.67.15-.89-.64-.37.89-.43Z"/><path class="cls-10" d="M117.45,45.24l.39.66.88-.1-.64.75c.06.27.1.53.15.8l-.78-.19-.8.62c0-.29.11-.59.15-.88l-.63-.41.88-.38C117.18,45.82,117.31,45.53,117.45,45.24Z"/><path class="cls-10" d="M85.87,54l.39.87.88.32-.63.46.15.87c-.27-.19-.53-.39-.79-.59l-.79.16.15-.79c-.22-.26-.43-.53-.64-.8l.88.16C85.6,54.42,85.73,54.2,85.87,54Z"/><path class="cls-10" d="M92.92,54.68l.39.75.89,0-.64.64.15.83-.79-.34-.79.42.15-.84-.64-.58.88-.14C92.65,55.21,92.79,55,92.92,54.68Z"/><path class="cls-10" d="M100,53.53c.13.22.26.44.4.66l.88-.12-.64.77.15.8-.79-.19-.79.6.15-.88-.64-.44.88-.34C99.71,54.11,99.84,53.82,100,53.53Z"/><path class="cls-10" d="M107,51.33l.4.63.88-.19-.64.82.15.78-.79-.12-.79.67.15-.89-.64-.37.89-.43Z"/><path class="cls-10" d="M114.07,48.9c.14.21.27.42.4.63l.88-.15c-.21.26-.42.53-.64.79l.15.79-.79-.14-.79.65.15-.88-.63-.39.88-.41Z"/><path class="cls-10" d="M82.06,55.19c.13.32.26.64.4,1l.88.51L82.7,57l.15.91-.79-.76c-.26,0-.53,0-.79,0l.15-.75-.64-1c.3.13.59.25.89.36Z"/><path class="cls-10" d="M89.11,57.23c.13.27.27.54.4.8l.88.19-.64.55.15.85-.79-.46-.79.29.15-.82-.64-.69h.89Z"/><path class="cls-10" d="M96.16,57c.14.23.27.47.4.7l.88,0c-.21.24-.42.48-.64.71l.15.81-.79-.26-.79.52.15-.86L94.89,58l.88-.24Z"/><path class="cls-10" d="M103.22,55.24l.39.64.89-.16-.64.8.15.79-.79-.14-.79.64.15-.89-.64-.4.88-.39C103,55.83,103.08,55.54,103.22,55.24Z"/><path class="cls-10" d="M110.27,52.83l.39.63.89-.19-.64.82.15.79-.79-.12-.79.67.15-.89-.64-.37.88-.43Z"/><path class="cls-10" d="M117.32,50.56c.13.22.26.44.4.66l.88-.11-.64.76.15.8-.79-.19-.79.62.15-.88-.64-.41.89-.38Z"/><path class="cls-10" d="M85.87,59.27l.39.87.88.32-.63.45.15.88c-.27-.2-.53-.39-.79-.6-.27.07-.53.12-.79.17l.15-.79-.64-.8c.29.06.59.11.88.15Z"/><path class="cls-10" d="M92.92,60l.39.74.89,0-.64.65.15.83-.79-.34-.79.42.15-.84-.64-.59.88-.14Z"/><path class="cls-10" d="M100,58.82c.13.22.26.44.4.66l.88-.12-.64.77.15.8-.79-.19-.79.59.15-.87L98.69,60c.3-.1.59-.21.88-.33C99.71,59.39,99.84,59.11,100,58.82Z"/><path class="cls-10" d="M107,56.62l.4.62.88-.18-.64.81.15.79-.79-.12-.79.67.15-.89-.64-.38.89-.42Z"/><path class="cls-10" d="M114.07,54.18c.14.21.27.43.4.64l.88-.16-.64.8.15.79-.79-.14-.79.65.15-.89-.63-.38.88-.42Z"/><path class="cls-10" d="M82.06,60.48c.13.32.26.64.4,1,.29.18.58.35.88.51l-.64.32.15.91-.79-.77c-.26,0-.53,0-.79,0l.15-.76c-.21-.31-.43-.62-.64-.94l.89.35Z"/><path class="cls-10" d="M89.11,62.52c.13.27.27.54.4.8l.88.19-.64.55.15.85-.79-.47c-.26.11-.52.21-.79.3l.15-.82-.64-.69h.89Z"/><path class="cls-10" d="M96.16,62.27c.14.23.27.46.4.69l.88,0-.64.72.15.81-.79-.26-.79.51.15-.86-.63-.51.88-.24Z"/><path class="cls-10" d="M103.22,60.53l.39.64.89-.17-.64.81.15.79-.79-.15-.79.64.15-.88-.64-.41.88-.38C103,61.12,103.08,60.83,103.22,60.53Z"/><path class="cls-10" d="M110.27,58.12l.39.63.89-.19c-.22.27-.43.54-.64.82l.15.78-.79-.12-.79.68.15-.89-.64-.37.88-.44C110,58.72,110.14,58.42,110.27,58.12Z"/><path class="cls-10" d="M117.32,55.85c.13.22.26.44.4.66l.88-.11c-.21.25-.43.5-.64.76l.15.8-.79-.19-.79.62.15-.88c-.21-.14-.42-.28-.64-.41l.89-.38Z"/><path class="cls-11" d="M138.91,83.5s.48.39.21.69a1,1,0,0,1-.75.24s.72.24,1.06-.17.08-1.07,0-2.09-.09-2-.09-2S138.17,83.08,138.91,83.5Z"/><path class="cls-4" d="M286.48,31.56V30.42h14.77v1.14h-1.57a4.23,4.23,0,0,0-3.79,2.06c-.43.63-.64,2.11-.64,4.43V55A29.84,29.84,0,0,1,294,64.7a12.21,12.21,0,0,1-4.89,5.94q-3.64,2.48-9.92,2.48-6.82,0-10.37-2.37a12.78,12.78,0,0,1-5-6.37q-1-2.74-1-10.27V37.8q0-3.84-1.06-5a4.37,4.37,0,0,0-3.43-1.2h-1.57V30.42h18v1.14h-1.6a4.13,4.13,0,0,0-3.69,1.63c-.51.74-.77,2.27-.77,4.61V56a39.73,39.73,0,0,0,.45,5.57,11.75,11.75,0,0,0,1.61,4.89,8.77,8.77,0,0,0,3.37,2.89,11.6,11.6,0,0,0,5.4,1.14,14.86,14.86,0,0,0,7.32-1.78,9.6,9.6,0,0,0,4.41-4.57q1.18-2.79,1.19-9.43V37.8c0-2.6-.29-4.23-.86-4.89a4.53,4.53,0,0,0-3.57-1.35Z"/><path class="cls-4" d="M309.8,66.16a3.31,3.31,0,0,1,2.43,1,3.36,3.36,0,0,1,1,2.42A3.42,3.42,0,0,1,307.38,72a3.41,3.41,0,0,1,2.42-5.83Z"/><path class="cls-4" d="M346.56,29.47V43.89h-1.14a17.83,17.83,0,0,0-2-6.61,10.36,10.36,0,0,0-4.07-3.91,11.34,11.34,0,0,0-5.48-1.44,7.47,7.47,0,0,0-5.29,2,6,6,0,0,0-2.09,4.44,5.25,5.25,0,0,0,1.32,3.48q1.9,2.31,9.08,6.15a64,64,0,0,1,8,4.82,11.68,11.68,0,0,1,3.29,3.95,10.43,10.43,0,0,1,1.16,4.77,10.81,10.81,0,0,1-3.68,8.17,13.33,13.33,0,0,1-9.46,3.43,20.38,20.38,0,0,1-3.41-.28,35.14,35.14,0,0,1-4-1.12,17.41,17.41,0,0,0-3.8-1,1.6,1.6,0,0,0-1.21.46,3.62,3.62,0,0,0-.66,1.91H322V58.78h1.14a20.1,20.1,0,0,0,2.15,6.72,10.26,10.26,0,0,0,4.14,3.71,12.85,12.85,0,0,0,6.1,1.48,8.71,8.71,0,0,0,6.08-2,6.3,6.3,0,0,0,2.23-4.8,6.46,6.46,0,0,0-.85-3.11,9.13,9.13,0,0,0-2.63-2.92,74.05,74.05,0,0,0-6.55-3.92,63.37,63.37,0,0,1-7.61-4.79,12.84,12.84,0,0,1-3.43-3.94,9.72,9.72,0,0,1-1.17-4.73,10.28,10.28,0,0,1,3.44-7.74,12.3,12.3,0,0,1,8.77-3.24,17.57,17.57,0,0,1,7.05,1.63,7.12,7.12,0,0,0,2.43.76,1.79,1.79,0,0,0,1.3-.47,3.85,3.85,0,0,0,.82-1.92Z"/><path class="cls-4" d="M360.58,66.16a3.28,3.28,0,0,1,2.43,1A3.43,3.43,0,0,1,363,72a3.42,3.42,0,1,1-2.42-5.83Z"/><path class="cls-4" d="M406.36,71v1.14H388.49V71H390a4.47,4.47,0,0,0,3.76-1.5c.49-.66.73-2.24.73-4.74V37.8a13.69,13.69,0,0,0-.4-4.18,2.69,2.69,0,0,0-1.26-1.32,5.73,5.73,0,0,0-2.83-.74h-1.47V30.42h17.87v1.14h-1.51a4.43,4.43,0,0,0-3.72,1.5c-.51.66-.77,2.24-.77,4.74v27a13.65,13.65,0,0,0,.4,4.18,2.79,2.79,0,0,0,1.29,1.33,5.68,5.68,0,0,0,2.8.73Z"/><path class="cls-4" d="M420.94,49.12Q424,46,424.57,45.58a11.27,11.27,0,0,1,3-1.81,8.39,8.39,0,0,1,3.16-.65,7.06,7.06,0,0,1,4.56,1.54,7.62,7.62,0,0,1,2.55,4.46,21,21,0,0,1,5.35-4.84,9.53,9.53,0,0,1,4.49-1.16,7.05,7.05,0,0,1,4,1.16,7.65,7.65,0,0,1,2.75,3.77,17,17,0,0,1,.68,5.59V65.76a10.89,10.89,0,0,0,.4,3.63,2.54,2.54,0,0,0,1.14,1.16,5.66,5.66,0,0,0,2.7.47v1.11h-13.9V71H446a4.89,4.89,0,0,0,2.83-.7,2.78,2.78,0,0,0,1-1.57,20.25,20.25,0,0,0,.12-3V53.64a10.34,10.34,0,0,0-.83-4.86,4.16,4.16,0,0,0-3.84-2,7.38,7.38,0,0,0-3.28.81,17.3,17.3,0,0,0-4,3L438,51l.07,1.32V65.76a11.47,11.47,0,0,0,.32,3.6,2.58,2.58,0,0,0,1.21,1.19,7,7,0,0,0,3.05.47v1.11H428.39V71a6.49,6.49,0,0,0,3.21-.55,2.87,2.87,0,0,0,1.22-1.66,16.79,16.79,0,0,0,.15-3V53.64a9.14,9.14,0,0,0-1-5,4.33,4.33,0,0,0-3.78-2,6.84,6.84,0,0,0-3.29.89,12.88,12.88,0,0,0-3.94,3v15.1a10.3,10.3,0,0,0,.39,3.6,2.61,2.61,0,0,0,1.13,1.25,7.37,7.37,0,0,0,3.07.41v1.11H411.59V71a6.19,6.19,0,0,0,2.71-.41,2.72,2.72,0,0,0,1.17-1.32,10.37,10.37,0,0,0,.4-3.53V55a39.47,39.47,0,0,0-.28-6,2.41,2.41,0,0,0-.68-1.4,1.88,1.88,0,0,0-1.26-.38,5.87,5.87,0,0,0-2.06.46l-.46-1.11,8.49-3.45h1.32Z"/><path class="cls-4" d="M472.66,49.12q3.07-3.07,3.63-3.54a11.07,11.07,0,0,1,3-1.81,8.4,8.4,0,0,1,3.17-.65A7.06,7.06,0,0,1,487,44.66a7.62,7.62,0,0,1,2.55,4.46,21,21,0,0,1,5.36-4.84,9.48,9.48,0,0,1,4.49-1.16,7,7,0,0,1,4,1.16,7.59,7.59,0,0,1,2.75,3.77,16.68,16.68,0,0,1,.68,5.59V65.76a10.89,10.89,0,0,0,.4,3.63,2.64,2.64,0,0,0,1.14,1.16,5.68,5.68,0,0,0,2.71.47v1.11H497.14V71h.59a4.91,4.91,0,0,0,2.83-.7,2.72,2.72,0,0,0,1-1.57,20.25,20.25,0,0,0,.12-3V53.64a10.21,10.21,0,0,0-.83-4.86,4.16,4.16,0,0,0-3.84-2,7.38,7.38,0,0,0-3.28.81,17.74,17.74,0,0,0-4,3l-.06.34.06,1.32V65.76a11.8,11.8,0,0,0,.32,3.6,2.61,2.61,0,0,0,1.22,1.19,6.93,6.93,0,0,0,3,.47v1.11H480.1V71a6.49,6.49,0,0,0,3.21-.55,2.87,2.87,0,0,0,1.22-1.66,16.79,16.79,0,0,0,.15-3V53.64a9.25,9.25,0,0,0-1-5,4.35,4.35,0,0,0-3.79-2,6.87,6.87,0,0,0-3.29.89,12.71,12.71,0,0,0-3.93,3v15.1a10.38,10.38,0,0,0,.38,3.6,2.62,2.62,0,0,0,1.14,1.25,7.29,7.29,0,0,0,3.06.41v1.11H463.3V71a6.16,6.16,0,0,0,2.71-.41,2.72,2.72,0,0,0,1.17-1.32,10.11,10.11,0,0,0,.4-3.53V55a38.13,38.13,0,0,0-.28-6,2.47,2.47,0,0,0-.67-1.4,1.91,1.91,0,0,0-1.27-.38,5.87,5.87,0,0,0-2.06.46l-.46-1.11,8.49-3.45h1.33Z"/><path class="cls-4" d="M525.72,43.12V65.76a10.28,10.28,0,0,0,.39,3.53,2.64,2.64,0,0,0,1.13,1.3A6.09,6.09,0,0,0,530,71v1.11H516.31V71a6.36,6.36,0,0,0,2.77-.4,2.7,2.7,0,0,0,1.12-1.32,9.87,9.87,0,0,0,.41-3.54V54.91a39.35,39.35,0,0,0-.27-5.94,2.44,2.44,0,0,0-.68-1.37,1.9,1.9,0,0,0-1.26-.38,6.11,6.11,0,0,0-2.09.46l-.43-1.11,8.49-3.45Zm-2.55-14.73a3.09,3.09,0,0,1,3.1,3.11,3,3,0,0,1-.9,2.21,3,3,0,0,1-2.2.92A3.14,3.14,0,0,1,520,31.5a3,3,0,0,1,.91-2.2A3,3,0,0,1,523.17,28.39Z"/><path class="cls-4" d="M543.75,61.86a9.23,9.23,0,0,1-5.35-8.52,9.62,9.62,0,0,1,3.15-7.2,11.2,11.2,0,0,1,8.07-3,12.33,12.33,0,0,1,7,2h6a7.71,7.71,0,0,1,1.53.08.51.51,0,0,1,.31.26,1.92,1.92,0,0,1,.19,1,2.72,2.72,0,0,1-.16,1.1.59.59,0,0,1-.32.25,6.92,6.92,0,0,1-1.55.09h-3.67a9.48,9.48,0,0,1-1.29,12.4,11.43,11.43,0,0,1-8.09,2.8,15.69,15.69,0,0,1-4.27-.62,7.73,7.73,0,0,0-1.83,2A3.23,3.23,0,0,0,543,66a1.4,1.4,0,0,0,.51,1,3.68,3.68,0,0,0,2,.71c.58.08,2,.16,4.31.22q6.33.15,8.21.43a7.67,7.67,0,0,1,4.57,2.12,5.79,5.79,0,0,1,1.71,4.25c0,2.31-1.09,4.49-3.26,6.52q-4.8,4.49-12.52,4.49a17.89,17.89,0,0,1-10-2.68c-1.54-1-2.31-2.09-2.31-3.2a3.43,3.43,0,0,1,.34-1.47,17.42,17.42,0,0,1,2.15-3.17c.15-.19,1.19-1.29,3.14-3.32a9.78,9.78,0,0,1-2.26-1.71,2.52,2.52,0,0,1-.66-1.71A5.06,5.06,0,0,1,539.7,66,20.49,20.49,0,0,1,543.75,61.86Zm-.31,10.27a15.38,15.38,0,0,0-2.18,2.92,5.35,5.35,0,0,0-.74,2.5,3.11,3.11,0,0,0,1.78,2.58c2.05,1.27,5,1.91,8.89,1.91,3.69,0,6.42-.65,8.17-2S562,77.39,562,75.92a2.33,2.33,0,0,0-1.57-2.28,20.48,20.48,0,0,0-6.33-.8A99.94,99.94,0,0,1,543.44,72.13ZM549.1,44.6a4.79,4.79,0,0,0-3.81,1.82q-1.54,1.81-1.54,5.56c0,3.24.7,5.76,2.09,7.54a5,5,0,0,0,4.06,2,4.85,4.85,0,0,0,3.85-1.75q1.5-1.75,1.5-5.51c0-3.26-.7-5.81-2.12-7.66A4.88,4.88,0,0,0,549.1,44.6Z"/><path class="cls-4" d="M578.67,43.12v6.34q3.52-6.33,7.26-6.34a4,4,0,0,1,2.79,1,3.19,3.19,0,0,1,1.11,2.39,2.8,2.8,0,0,1-.8,2,2.57,2.57,0,0,1-1.91.83,4,4,0,0,1-2.41-1.06,4,4,0,0,0-2-1.06,1.82,1.82,0,0,0-1.2.61A14.65,14.65,0,0,0,578.67,52V65.55a8.37,8.37,0,0,0,.58,3.54,3.22,3.22,0,0,0,1.42,1.38,6.18,6.18,0,0,0,2.92.55v1.11H569.16V71a6,6,0,0,0,3.2-.67,2.66,2.66,0,0,0,1.08-1.57,16.18,16.18,0,0,0,.15-3V54.87a46.12,46.12,0,0,0-.2-5.86,2.24,2.24,0,0,0-.74-1.36,2.05,2.05,0,0,0-1.34-.43,6,6,0,0,0-2.15.46l-.31-1.11,8.52-3.45Z"/><path class="cls-4" d="M610.08,68.07A46.73,46.73,0,0,1,604.63,72a8.38,8.38,0,0,1-3.54.77,6.34,6.34,0,0,1-4.81-2,7.36,7.36,0,0,1-1.89-5.26,6.64,6.64,0,0,1,.92-3.57A12.16,12.16,0,0,1,599.69,58a68,68,0,0,1,10.39-4.49V52.35q0-4.22-1.34-5.78A4.82,4.82,0,0,0,604.85,45a4.36,4.36,0,0,0-3.08,1,3.12,3.12,0,0,0-1.17,2.4l.06,1.78a3.07,3.07,0,0,1-.72,2.18,2.44,2.44,0,0,1-1.89.77,2.37,2.37,0,0,1-1.86-.8,3.09,3.09,0,0,1-.73-2.18,6.32,6.32,0,0,1,2.71-4.86q2.72-2.22,7.6-2.22a13.06,13.06,0,0,1,6.15,1.27,5.81,5.81,0,0,1,2.68,3,16.82,16.82,0,0,1,.55,5.41v9.57a41.42,41.42,0,0,0,.16,4.94,2.08,2.08,0,0,0,.5,1.21,1.2,1.2,0,0,0,.82.31,1.62,1.62,0,0,0,.86-.22A18.58,18.58,0,0,0,620,66.35v1.72q-3.45,4.62-6.58,4.62a3,3,0,0,1-2.4-1A5.63,5.63,0,0,1,610.08,68.07Zm0-2V55.34a61.13,61.13,0,0,0-6,2.61,10.43,10.43,0,0,0-3.48,2.83,5.45,5.45,0,0,0-1,3.23,5.29,5.29,0,0,0,1.32,3.68,4,4,0,0,0,3,1.46Q606.26,69.15,610.08,66.07Z"/><path class="cls-4" d="M633,34.7V44h6.59v2.16H633V64.38c0,1.83.27,3.06.79,3.69a2.47,2.47,0,0,0,2,1,3.45,3.45,0,0,0,2-.64,4,4,0,0,0,1.48-1.86h1.2a9.67,9.67,0,0,1-3,4.54,6.52,6.52,0,0,1-4.06,1.52,5.52,5.52,0,0,1-2.77-.78,4.72,4.72,0,0,1-2-2.25,11.77,11.77,0,0,1-.64-4.5v-19h-4.46v-1a11.57,11.57,0,0,0,3.46-2.29A18.1,18.1,0,0,0,630,39a34.48,34.48,0,0,0,2-4.27Z"/><path class="cls-4" d="M654.71,43.12V65.76a10.28,10.28,0,0,0,.39,3.53,2.65,2.65,0,0,0,1.14,1.3A6,6,0,0,0,659,71v1.11H645.3V71a6.3,6.3,0,0,0,2.77-.4,2.65,2.65,0,0,0,1.12-1.32,9.81,9.81,0,0,0,.42-3.54V54.91a37.53,37.53,0,0,0-.28-5.94,2.38,2.38,0,0,0-.68-1.37,1.86,1.86,0,0,0-1.26-.38,6.11,6.11,0,0,0-2.09.46l-.43-1.11,8.49-3.45Zm-2.55-14.73a3.11,3.11,0,0,1,3.11,3.11,3,3,0,0,1-.91,2.21,3,3,0,0,1-2.2.92,3.13,3.13,0,0,1-2.23-5.33A3,3,0,0,1,652.16,28.39Z"/><path class="cls-4" d="M679,43.12A12.48,12.48,0,0,1,689.26,48a14.9,14.9,0,0,1,3.29,9.54,17.94,17.94,0,0,1-1.81,7.66A12.9,12.9,0,0,1,678.65,73a11.93,11.93,0,0,1-10.12-5.07,15.74,15.74,0,0,1-3.17-9.6,17.1,17.1,0,0,1,1.92-7.71A13.15,13.15,0,0,1,672.34,45,13,13,0,0,1,679,43.12Zm-1,2a6.45,6.45,0,0,0-3.27,1,6.76,6.76,0,0,0-2.66,3.4,16.29,16.29,0,0,0-1,6.25,21.74,21.74,0,0,0,2.45,10.61Q676,70.8,680,70.81a6,6,0,0,0,4.92-2.46c1.3-1.64,1.94-4.46,1.94-8.46q0-7.5-3.23-11.81A6.65,6.65,0,0,0,678,45.12Z"/><path class="cls-4" d="M707.63,49.09q4.95-6,9.44-6a6.79,6.79,0,0,1,4,1.16,7.72,7.72,0,0,1,2.65,3.8,17.61,17.61,0,0,1,.67,5.66v12a10.26,10.26,0,0,0,.43,3.63,2.47,2.47,0,0,0,1.1,1.2,6.13,6.13,0,0,0,2.78.43v1.11H714.73V71h.59a4.77,4.77,0,0,0,2.75-.59,3.17,3.17,0,0,0,1.09-1.77,16.79,16.79,0,0,0,.13-2.9V54.23a11.76,11.76,0,0,0-1-5.58,3.57,3.57,0,0,0-3.37-1.74q-3.66,0-7.29,4V65.76A10.48,10.48,0,0,0,708,69.3a2.81,2.81,0,0,0,1.18,1.31,7.29,7.29,0,0,0,3.06.41v1.11H698.28V71h.61c1.44,0,2.41-.36,2.91-1.09s.75-2.11.75-4.17V55.31a44.51,44.51,0,0,0-.23-6.19,2.63,2.63,0,0,0-.71-1.51,1.93,1.93,0,0,0-1.27-.39,5.82,5.82,0,0,0-2.06.46l-.46-1.11,8.49-3.45h1.32Z"/><path class="cls-4" d="M285.25,194.17H269.1l-2.83,6.58a10.39,10.39,0,0,0-1,3.63,2.15,2.15,0,0,0,.91,1.68c.6.48,1.91.79,3.92.93v1.14H256.92V207a6.9,6.9,0,0,0,3.38-1.2c1.05-1,2.2-3,3.48-6l14.67-34.33h1.08l14.52,34.69q1.76,4.18,3.18,5.43a6.4,6.4,0,0,0,4,1.4v1.14H284.76V207a6,6,0,0,0,3.36-.83,2.12,2.12,0,0,0,.88-1.72,12.8,12.8,0,0,0-1.23-4.28Zm-.86-2.28L277.31,175l-7.26,16.86Z"/><path class="cls-4" d="M324.81,179.12v9.6h-1q-1.16-4.51-3-6.15a6.74,6.74,0,0,0-4.66-1.63,5.14,5.14,0,0,0-3.48,1.14,3.31,3.31,0,0,0-1.32,2.52,4.54,4.54,0,0,0,1,3,11,11,0,0,0,3.88,2.68l4.49,2.18q6.24,3,6.24,8a7.6,7.6,0,0,1-2.9,6.2,10.08,10.08,0,0,1-6.51,2.35,22.24,22.24,0,0,1-5.91-.92,6.17,6.17,0,0,0-1.66-.31,1.21,1.21,0,0,0-1.1.8h-1V198.5h1a11.37,11.37,0,0,0,3.29,6.49,7.92,7.92,0,0,0,5.44,2.19,4.87,4.87,0,0,0,3.46-1.25,4,4,0,0,0,1.34-3,4.81,4.81,0,0,0-1.49-3.57,26.52,26.52,0,0,0-5.95-3.66c-3-1.47-4.93-2.81-5.85-4a7,7,0,0,1-1.38-4.43,7.82,7.82,0,0,1,2.38-5.82,8.44,8.44,0,0,1,6.17-2.34,14.56,14.56,0,0,1,4,.71,9.25,9.25,0,0,0,2.09.46,1.26,1.26,0,0,0,.77-.21,3,3,0,0,0,.64-1Z"/><path class="cls-4" d="M352,179.12v9.6h-1q-1.17-4.51-3-6.15a6.72,6.72,0,0,0-4.66-1.63,5.13,5.13,0,0,0-3.47,1.14,3.29,3.29,0,0,0-1.33,2.52,4.55,4.55,0,0,0,1,3,10.8,10.8,0,0,0,3.87,2.68l4.49,2.18q6.25,3,6.25,8a7.58,7.58,0,0,1-2.91,6.2,10.06,10.06,0,0,1-6.5,2.35,22.12,22.12,0,0,1-5.91-.92,6.24,6.24,0,0,0-1.66-.31,1.24,1.24,0,0,0-1.11.8h-1V198.5h1a11.37,11.37,0,0,0,3.29,6.49,7.94,7.94,0,0,0,5.45,2.19,4.88,4.88,0,0,0,3.46-1.25,4,4,0,0,0,1.34-3,4.78,4.78,0,0,0-1.5-3.57,26.27,26.27,0,0,0-5.95-3.66c-3-1.47-4.92-2.81-5.84-4a6.9,6.9,0,0,1-1.39-4.43,7.83,7.83,0,0,1,2.39-5.82,8.42,8.42,0,0,1,6.16-2.34,14.56,14.56,0,0,1,4,.71,9.41,9.41,0,0,0,2.1.46,1.23,1.23,0,0,0,.76-.21,3,3,0,0,0,.65-1Z"/><path class="cls-4" d="M374.83,179.12A12.5,12.5,0,0,1,385.11,184a15,15,0,0,1,3.29,9.54,18,18,0,0,1-1.82,7.66A12.9,12.9,0,0,1,374.5,209a12,12,0,0,1-10.13-5.07,15.73,15.73,0,0,1-3.16-9.6,17.1,17.1,0,0,1,1.92-7.71,13.15,13.15,0,0,1,5.06-5.66A13,13,0,0,1,374.83,179.12Zm-.95,2a6.49,6.49,0,0,0-3.28,1,6.87,6.87,0,0,0-2.66,3.4,16.5,16.5,0,0,0-1,6.25,21.74,21.74,0,0,0,2.44,10.61q2.44,4.46,6.45,4.46a6,6,0,0,0,4.92-2.46q1.93-2.46,1.94-8.46,0-7.5-3.23-11.81A6.68,6.68,0,0,0,373.88,181.12Z"/><path class="cls-4" d="M419.19,197.43a15.23,15.23,0,0,1-4.46,8.56,10.71,10.71,0,0,1-7.35,3,10.86,10.86,0,0,1-8.37-4q-3.57-4-3.56-10.89a15,15,0,0,1,3.95-10.79,12.63,12.63,0,0,1,9.49-4.16,10.45,10.45,0,0,1,6.83,2.2q2.67,2.2,2.67,4.57a2.5,2.5,0,0,1-.75,1.89,2.9,2.9,0,0,1-2.11.73,3.29,3.29,0,0,1-2.74-1.17,4.92,4.92,0,0,1-.69-2.46,4,4,0,0,0-1.24-2.77,4.44,4.44,0,0,0-3-.93,6.09,6.09,0,0,0-4.95,2.28,12.12,12.12,0,0,0-2.49,8,16,16,0,0,0,2.48,8.9,7.59,7.59,0,0,0,6.69,3.86,8,8,0,0,0,5.41-2.06A13.87,13.87,0,0,0,418.3,197Z"/><path class="cls-4" d="M435.65,179.12v22.64a10.28,10.28,0,0,0,.39,3.53,2.64,2.64,0,0,0,1.13,1.3,6.09,6.09,0,0,0,2.76.43v1.11H426.24V207a6.33,6.33,0,0,0,2.77-.4,2.7,2.7,0,0,0,1.12-1.32,9.81,9.81,0,0,0,.42-3.54V190.91a38.86,38.86,0,0,0-.28-5.94,2.44,2.44,0,0,0-.68-1.37,1.88,1.88,0,0,0-1.26-.38,6.11,6.11,0,0,0-2.09.46l-.43-1.11,8.49-3.45Zm-2.55-14.73a3.11,3.11,0,0,1,3.11,3.11,3.05,3.05,0,0,1-.91,2.21,3,3,0,0,1-2.2.92A3.14,3.14,0,0,1,430,167.5a3,3,0,0,1,.91-2.2A3,3,0,0,1,433.1,164.39Z"/><path class="cls-4" d="M462.11,204.07a45.84,45.84,0,0,1-5.45,3.88,8.3,8.3,0,0,1-3.53.77,6.36,6.36,0,0,1-4.82-2,7.36,7.36,0,0,1-1.89-5.26,6.72,6.72,0,0,1,.92-3.57,12.2,12.2,0,0,1,4.39-3.94,67.78,67.78,0,0,1,10.38-4.49v-1.11q0-4.22-1.34-5.78a4.82,4.82,0,0,0-3.89-1.57,4.37,4.37,0,0,0-3.08,1.05,3.12,3.12,0,0,0-1.17,2.4l.07,1.78a3.07,3.07,0,0,1-.73,2.18,2.44,2.44,0,0,1-1.89.77,2.37,2.37,0,0,1-1.86-.8,3.13,3.13,0,0,1-.72-2.18,6.31,6.31,0,0,1,2.7-4.86q2.71-2.22,7.6-2.22a13,13,0,0,1,6.15,1.27,5.77,5.77,0,0,1,2.68,3,16.73,16.73,0,0,1,.56,5.41v9.57a45,45,0,0,0,.15,4.94,2,2,0,0,0,.51,1.21,1.16,1.16,0,0,0,.81.31,1.6,1.6,0,0,0,.86-.22,18.42,18.42,0,0,0,2.5-2.24v1.72q-3.45,4.62-6.59,4.62a3,3,0,0,1-2.4-1.05A5.69,5.69,0,0,1,462.11,204.07Zm0-2V191.34a61.13,61.13,0,0,0-6,2.61,10.43,10.43,0,0,0-3.48,2.83,5.52,5.52,0,0,0-1,3.23,5.29,5.29,0,0,0,1.32,3.68,4,4,0,0,0,3,1.46Q458.3,205.15,462.11,202.07Z"/><path class="cls-4" d="M485,170.7V180h6.58v2.16H485v18.27q0,2.75.78,3.69a2.51,2.51,0,0,0,2,1,3.49,3.49,0,0,0,2-.64,4.09,4.09,0,0,0,1.47-1.86h1.2a9.66,9.66,0,0,1-3,4.54,6.56,6.56,0,0,1-4.06,1.52,5.46,5.46,0,0,1-2.77-.78,4.67,4.67,0,0,1-2-2.25,11.74,11.74,0,0,1-.65-4.5V182.11h-4.46v-1a11.57,11.57,0,0,0,3.46-2.29,18.44,18.44,0,0,0,3.16-3.83,34.85,34.85,0,0,0,2-4.27Z"/><path class="cls-4" d="M506.75,179.12v22.64a10.63,10.63,0,0,0,.38,3.53,2.7,2.7,0,0,0,1.14,1.3A6,6,0,0,0,511,207v1.11H497.34V207a6.28,6.28,0,0,0,2.76-.4,2.67,2.67,0,0,0,1.13-1.32,10.11,10.11,0,0,0,.41-3.54V190.91a39.35,39.35,0,0,0-.27-5.94,2.44,2.44,0,0,0-.68-1.37,1.9,1.9,0,0,0-1.26-.38,6.06,6.06,0,0,0-2.09.46l-.43-1.11,8.49-3.45Zm-2.55-14.73a3.09,3.09,0,0,1,3.1,3.11,3,3,0,0,1-.9,2.21,3,3,0,0,1-2.2.92,3.14,3.14,0,0,1-3.14-3.13,3,3,0,0,1,.91-2.2A3,3,0,0,1,504.2,164.39Z"/><path class="cls-4" d="M531,179.12A12.5,12.5,0,0,1,541.3,184a15,15,0,0,1,3.29,9.54,18,18,0,0,1-1.82,7.66A12.9,12.9,0,0,1,530.68,209a12,12,0,0,1-10.12-5.07,15.74,15.74,0,0,1-3.17-9.6,17.11,17.11,0,0,1,1.93-7.71,13.15,13.15,0,0,1,5.06-5.66A13,13,0,0,1,531,179.12Zm-.95,2a6.49,6.49,0,0,0-3.28,1,6.82,6.82,0,0,0-2.66,3.4,16.31,16.31,0,0,0-1,6.25,21.74,21.74,0,0,0,2.44,10.61q2.45,4.46,6.45,4.46a6,6,0,0,0,4.92-2.46q1.94-2.46,1.94-8.46,0-7.5-3.23-11.81A6.68,6.68,0,0,0,530.07,181.12Z"/><path class="cls-4" d="M559.66,185.09q5-6,9.45-6a6.75,6.75,0,0,1,4,1.16,7.72,7.72,0,0,1,2.65,3.8,17.56,17.56,0,0,1,.68,5.66v12a10,10,0,0,0,.43,3.63,2.45,2.45,0,0,0,1.09,1.2,6.13,6.13,0,0,0,2.78.43v1.11H566.77V207h.58a4.83,4.83,0,0,0,2.76-.59,3.22,3.22,0,0,0,1.09-1.77,18.59,18.59,0,0,0,.12-2.9V190.23a11.64,11.64,0,0,0-1-5.58,3.56,3.56,0,0,0-3.37-1.74q-3.66,0-7.29,4v14.85a10.76,10.76,0,0,0,.34,3.54,2.83,2.83,0,0,0,1.19,1.31,7.29,7.29,0,0,0,3.06.41v1.11H550.31V207h.62a3.29,3.29,0,0,0,2.9-1.09c.51-.73.76-2.11.76-4.17V191.31a46.29,46.29,0,0,0-.23-6.19,2.69,2.69,0,0,0-.71-1.51,2,2,0,0,0-1.28-.39,5.87,5.87,0,0,0-2.06.46l-.46-1.11,8.49-3.45h1.32Z"/><path class="cls-4" d="M281.6,139.28a47.72,47.72,0,0,1-5.44,3.87,8.38,8.38,0,0,1-3.54.77,6.37,6.37,0,0,1-4.82-2,7.33,7.33,0,0,1-1.89-5.26,6.77,6.77,0,0,1,.92-3.57,12.47,12.47,0,0,1,4.39-3.94,68.8,68.8,0,0,1,10.38-4.49v-1.1c0-2.81-.44-4.74-1.34-5.79a4.85,4.85,0,0,0-3.89-1.57,4.33,4.33,0,0,0-3.07,1,3.15,3.15,0,0,0-1.17,2.4l.06,1.78a3,3,0,0,1-.73,2.19,2.48,2.48,0,0,1-1.89.77,2.4,2.4,0,0,1-1.86-.8,3.16,3.16,0,0,1-.72-2.19,6.29,6.29,0,0,1,2.71-4.86q2.7-2.21,7.59-2.21a13.2,13.2,0,0,1,6.16,1.26,5.75,5.75,0,0,1,2.67,3,16.8,16.8,0,0,1,.56,5.42v9.56a44.88,44.88,0,0,0,.15,4.94,2,2,0,0,0,.51,1.22,1.21,1.21,0,0,0,.81.3,1.69,1.69,0,0,0,.86-.21,18.88,18.88,0,0,0,2.5-2.25v1.73q-3.45,4.6-6.59,4.61a3,3,0,0,1-2.4-1A5.64,5.64,0,0,1,281.6,139.28Zm0-2V126.54a61.13,61.13,0,0,0-6,2.61,10.4,10.4,0,0,0-3.47,2.83,5.49,5.49,0,0,0-1.05,3.24,5.27,5.27,0,0,0,1.32,3.67,4,4,0,0,0,3.05,1.46Q277.79,140.35,281.6,137.28Z"/><path class="cls-4" d="M304.52,120.3q5-6,9.44-6a6.76,6.76,0,0,1,4,1.15,7.76,7.76,0,0,1,2.65,3.8,17.65,17.65,0,0,1,.67,5.66v12a10,10,0,0,0,.44,3.63,2.53,2.53,0,0,0,1.09,1.2,6.13,6.13,0,0,0,2.78.43v1.11H311.63v-1.11h.58a4.68,4.68,0,0,0,2.75-.6,3.14,3.14,0,0,0,1.1-1.77,18.42,18.42,0,0,0,.12-2.89V125.43a11.67,11.67,0,0,0-1-5.58,3.57,3.57,0,0,0-3.37-1.74q-3.66,0-7.29,4V137a10.52,10.52,0,0,0,.34,3.54,2.84,2.84,0,0,0,1.18,1.3,7.3,7.3,0,0,0,3.06.42v1.11H295.17v-1.11h.61a3.33,3.33,0,0,0,2.91-1.09,8,8,0,0,0,.76-4.17V126.51a43.61,43.61,0,0,0-.24-6.18,2.63,2.63,0,0,0-.7-1.51,1.92,1.92,0,0,0-1.28-.4,5.87,5.87,0,0,0-2.06.46l-.46-1.11,8.49-3.44h1.32Z"/><path class="cls-4" d="M350.42,140.17a14.53,14.53,0,0,1-4,3.09,9.68,9.68,0,0,1-4.25.94,10.53,10.53,0,0,1-8.06-3.86,14.38,14.38,0,0,1-3.44-9.92,17.94,17.94,0,0,1,3.81-11.09,11.79,11.79,0,0,1,9.82-5,8.45,8.45,0,0,1,6.15,2.37v-5.2a43.31,43.31,0,0,0-.23-5.94,2.63,2.63,0,0,0-.72-1.51,1.93,1.93,0,0,0-1.23-.4,6.47,6.47,0,0,0-2.13.5l-.4-1.08,8.4-3.45h1.39v32.58a42.44,42.44,0,0,0,.23,6,2.74,2.74,0,0,0,.73,1.53,1.83,1.83,0,0,0,1.19.43,6.68,6.68,0,0,0,2.21-.53l.34,1.08-8.37,3.48h-1.41Zm0-2.16V123.49a9.69,9.69,0,0,0-1.11-3.81,6.4,6.4,0,0,0-2.44-2.6,6,6,0,0,0-3-.88,6.26,6.26,0,0,0-4.83,2.44q-2.81,3.19-2.8,9.35t2.71,9.52q2.7,3.3,6,3.3Q347.81,140.81,350.42,138Z"/><path class="cls-4" d="M424.8,101.62v1.14a6.8,6.8,0,0,0-3.35,1.42,12.65,12.65,0,0,0-2.89,4.61L404,144.29h-1.14l-15.62-36a20,20,0,0,0-1.7-3.38,5.34,5.34,0,0,0-1.89-1.5,8.69,8.69,0,0,0-3-.69v-1.14h17v1.14c-1.92.19-3.18.51-3.75,1a2.24,2.24,0,0,0-.86,1.81,13.89,13.89,0,0,0,1.41,4.8l10.62,24.45,9.84-24.14a16.44,16.44,0,0,0,1.45-5,2.32,2.32,0,0,0-.9-1.71,5.83,5.83,0,0,0-3-1.16l-.52-.09v-1.14Z"/><path class="cls-4" d="M436.19,114.33V137a10.56,10.56,0,0,0,.38,3.52,2.73,2.73,0,0,0,1.14,1.31,6,6,0,0,0,2.75.43v1.11H426.78v-1.11a6.28,6.28,0,0,0,2.76-.4,2.76,2.76,0,0,0,1.13-1.32,10.19,10.19,0,0,0,.41-3.54V126.11a39.45,39.45,0,0,0-.27-5.94,2.48,2.48,0,0,0-.68-1.37,2,2,0,0,0-1.26-.38,6.06,6.06,0,0,0-2.09.46l-.44-1.11,8.49-3.44Zm-2.55-14.74a3.12,3.12,0,0,1,2.19,5.32,2.93,2.93,0,0,1-2.19.93,3.13,3.13,0,1,1,0-6.25Z"/><path class="cls-4" d="M464.89,114.33v9.6h-1q-1.17-4.53-3-6.16a6.79,6.79,0,0,0-4.66-1.63,5.14,5.14,0,0,0-3.48,1.14,3.31,3.31,0,0,0-1.32,2.52,4.63,4.63,0,0,0,1,3,11,11,0,0,0,3.88,2.67l4.49,2.19q6.24,3,6.24,8a7.58,7.58,0,0,1-2.9,6.19,10.09,10.09,0,0,1-6.51,2.36,22.29,22.29,0,0,1-5.91-.93A6.09,6.09,0,0,0,450,143a1.2,1.2,0,0,0-1.1.8h-1V133.71h1a11.44,11.44,0,0,0,3.29,6.49,8,8,0,0,0,5.44,2.18,4.86,4.86,0,0,0,3.46-1.24,3.93,3.93,0,0,0,1.34-3,4.78,4.78,0,0,0-1.49-3.57,26.52,26.52,0,0,0-6-3.66q-4.47-2.22-5.85-4a7,7,0,0,1-1.38-4.43,7.78,7.78,0,0,1,2.38-5.81,8.44,8.44,0,0,1,6.17-2.34,14.2,14.2,0,0,1,4,.71,9.88,9.88,0,0,0,2.09.46,1.18,1.18,0,0,0,.77-.22,3,3,0,0,0,.65-1Z"/><path class="cls-4" d="M489.87,139.28a46.78,46.78,0,0,1-5.44,3.87,8.38,8.38,0,0,1-3.54.77,6.34,6.34,0,0,1-4.81-2,7.29,7.29,0,0,1-1.9-5.26,6.69,6.69,0,0,1,.93-3.57,12.34,12.34,0,0,1,4.38-3.94,68.8,68.8,0,0,1,10.38-4.49v-1.1c0-2.81-.44-4.74-1.34-5.79a4.85,4.85,0,0,0-3.89-1.57,4.35,4.35,0,0,0-3.07,1,3.15,3.15,0,0,0-1.17,2.4l.06,1.78a3.08,3.08,0,0,1-.72,2.19,2.52,2.52,0,0,1-1.9.77,2.41,2.41,0,0,1-1.86-.8,3.16,3.16,0,0,1-.72-2.19,6.29,6.29,0,0,1,2.71-4.86c1.8-1.47,4.34-2.21,7.6-2.21a13.19,13.19,0,0,1,6.15,1.26,5.75,5.75,0,0,1,2.67,3A16.8,16.8,0,0,1,495,124v9.56a44.88,44.88,0,0,0,.15,4.94,2,2,0,0,0,.51,1.22,1.21,1.21,0,0,0,.81.3,1.75,1.75,0,0,0,.87-.21,19.75,19.75,0,0,0,2.49-2.25v1.73c-2.3,3.07-4.49,4.61-6.59,4.61a3,3,0,0,1-2.39-1A5.57,5.57,0,0,1,489.87,139.28Zm0-2V126.54a63.53,63.53,0,0,0-6,2.61A10.4,10.4,0,0,0,480.4,132a5.49,5.49,0,0,0-1,3.24,5.27,5.27,0,0,0,1.32,3.67,4,4,0,0,0,3.05,1.46Q486.06,140.35,489.87,137.28Z"/></g></g></svg>